<svg xmlns="http://www.w3.org/2000/svg" viewBox="0 0 288.8 80.6"><path d="M179.5 11.8c-2-6.9-8.2-11.6-15.4-11.6-4 0-7.9 1.5-10.8 4.3 4.7 1.3 9 3.6 12.8 6.7 4.4-1.7 9.2-1.5 13.4.6zm-12.1.5c8.1 7.1 12.8 17.1 12.8 24 0 12.3-8.8 22.7-23.4 26.5-2 2-4.4 3.5-7 4.5 7.1-.2 14-2 19.3-5.8 3 5.5 3.5 12 1.2 17.8 8.9-4.3 19.1-14.7 21.9-23 .1-8.6-3-17-8.6-23.5 2.5-8.5-2.4-17.4-10.8-19.9-1.9-.5-3.6-.7-5.4-.6zm-23.3 36c-2.2 0-8-2.2-8 0s5.8 8 8 8 8-5.8 8-8-5.8 0-8 0zm0 12.2c-.4 0-1.6-.4-1.6 0 .3.7.9 1.3 1.6 1.6.7-.3 1.3-.9 1.6-1.6.1-.4-1.1 0-1.6 0zm28.3-12.2c4.7-4.7 5.2-15.8.5-20.5s-15.8-8.2-20.5-3.5-1.2 15.8 3.5 20.5 11.8 8.2 16.5 3.5zm-9.7-5.7c-.6 0-1.2-.5-1.2-1.2 0-.6.5-1.2 1.2-1.2.6 0 1.2.5 1.2 1.2-.1.7-.6 1.2-1.2 1.2zm1.4-8.3c2.2 0 4 1.8 4 4 0 1.3-.6 2.4-1.6 3.2.1-.4.2-.8.2-1.2 0-2-1.6-3.6-3.6-3.6h-.3c.1.1.1.3.1.5 0 .6-.5 1.2-1.2 1.2-.5 0-.9-.3-1.1-.7-.2.2-.4.4-.6.7.1-2.4 1.9-4.1 4.1-4.1zm-42-23c3.8-3.1 8.1-5.4 12.8-6.7C132 1.8 128.1.3 124.1.3c-7.1 0-13.4 4.7-15.4 11.6 4.2-2.2 9.1-2.4 13.4-.6zm-14 25c0-6.9 4.6-16.8 12.8-24-8.8-.4-16.3 6.4-16.7 15.2-.1 1.8.1 3.5.6 5.2-5.7 6.5-8.8 14.9-8.6 23.5 2.8 8.4 13 18.7 21.9 23-2.3-5.8-1.8-12.4 1.2-17.9 5.3 3.8 12.2 5.6 19.3 5.8-2.6-1-5-2.5-7-4.5-14.7-3.6-23.5-14.1-23.5-26.3zm7.3-8.5c-4.7 4.7-4.2 15.8.5 20.5s11.8 1.2 16.5-3.5 8.2-15.8 3.5-20.5-15.8-1.2-20.5 3.5zm10.5 14.8c-.6-.1-1.1-.6-1-1.3.1-.6.5-1 1-1 .6-.1 1.2.4 1.3 1s-.4 1.2-1 1.3h-.3zm-.8-6.3c-.4 0-.9.1-1.3.2.1.2.2.4.2.7 0 .6-.5 1.2-1.1 1.2-.4 0-.7-.2-.9-.5-.6.7-.9 1.6-.9 2.5 0 .2 0 .5.1.7-1.5-1.6-1.4-4.1.2-5.7 1.6-1.5 4.1-1.4 5.7.2.5.6.9 1.3 1 2-.8-.9-1.9-1.3-3-1.3zm-50.5 10c1 4.7.8 9.6-.7 14.1-1-8.9-4.8-31-15.8-27.3 6.8-2.9 11.5 1.3 13.9 5.6.3-4.2-.8-8.4-3.2-10.9-4.7-4.7-15.8-4.7-20.5 0-4.3 4.3-1.7 14.2 2.5 19.3-.9 5.6-.8 11.3.2 16.9-1.2 2.3-3.1 4-5.4 5.1 2-.1 4.1-.2 6.1-.5.5 1.1 4.2 12 11.2 11.7 16.2-.7 22.4-29.5 13.1-38.7-.3 1.6-.8 3.2-1.4 4.7zM74 28.9c7.1-5.3 8.5-15.3 3.2-22.4S61.9-2 54.8 3.3c-.5.4-1 .8-1.4 1.2-2.2-.3-6.7-.2-6.7-.2 11.1 3.2 22.7 14 27.3 24.6zM40.2 48.3c-2.2 0-8-2.2-8 0s5.8 8 8 8 8-5.8 8-8-5.8 0-8 0zm0 12c-.7.3-1.3.9-1.6 1.6 0 .4 1.2 0 1.6 0s1.6.4 1.6 0c-.2-.7-.8-1.3-1.6-1.6zM29.4 64c1-5.6 1.1-11.3.3-16.9 4.1-5.1 6.8-15 2.5-19.3-4.7-4.7-15.8-4.7-20.5 0-2.5 2.5-3.5 6.7-3.2 10.9 2.3-4.2 7-8.5 13.9-5.6C11.5 29.5 7.6 51.5 6.6 60.4c-1.5-4.6-1.8-9.4-.7-14.1-.6-1.5-1.1-3.1-1.3-4.8-9.3 9.2-3.1 38 13.1 38.7 7 .3 10.7-10.5 11.2-11.7 2 .3 4 .4 6.1.5-2.5-.9-4.4-2.7-5.6-5zm-23-35.1C11.1 18.3 22.6 7.5 33.7 4.3c0 0-4.6 0-6.7.2-6.4-6.1-16.5-5.9-22.6.5s-5.8 16.6.6 22.7c.4.4.9.8 1.4 1.2zm276.3 15.6c-2 5.5-5.7 10.1-10.6 13.3-5.1-2.1-12.2-4.9-18.4-5.4 1.4-1.5 2.5-3.1 2.5-4.1 0-2.2-5.8 0-8 0s-8-2.2-8 0c0 .8.8 2.2 2 3.6-6.5 1-13.4 3.9-18 5.9-4.9-3.2-8.6-7.8-10.6-13.3-3.7 2.4-5.5 6.8-5.5 11.8 0 11 6.8 24 16.1 24 10.9 0 30.1-17.5 29.6-25.1 1.9 3.1.8 8.4-2.2 13.7.7.8 11.4 11.3 20.4 11.3 10.1 0 16-15.6 16-24 .1-4.9-1.6-9.3-5.3-11.7zM214 28.7c4.3-9.8 15.5-21 27.3-24.4h-6.6a15.98 15.98 0 0 0-22.6.9 15.98 15.98 0 0 0 .9 22.6c.3.2.7.5 1 .9zm68.3 0a16.01 16.01 0 0 0 1.8-22.6c-5.8-6.8-15.8-7.6-22.6-1.8h-6.6c11.9 3.3 23 14.6 27.4 24.4zm-62.7-.9c-4.7 4.7-4.2 15.8.5 20.5s11.8 1.2 16.5-3.5 8.2-15.8 3.5-20.5-15.8-1.2-20.5 3.5zm9.7 4c0-.6.5-1.2 1.2-1.1.6 0 1.2.5 1.1 1.2 0 .6-.5 1.2-1.2 1.1-.6-.1-1.1-.6-1.1-1.2zm-1.2 8.5c-2.2 0-4-1.8-4-4 0-1.1.5-2.2 1.4-3-.1.3-.1.7-.1 1v.3c.5-.3 1.2-.1 1.5.4.1.2.1.4.1.6 0 .5-.3.9-.8 1.1 1.3 1.6 3.7 1.8 5.3.5l.6-.6c-.2 2-1.9 3.6-4 3.7zm48 8c4.7-4.7 5.2-15.8.5-20.5s-15.8-8.2-20.5-3.5-1.2 15.8 3.5 20.5 11.8 8.2 16.5 3.5zm-9.2-16.2c.6.1 1.1.6 1 1.3-.1.6-.5 1-1 1-.6.1-1.2-.4-1.3-1s.4-1.2 1-1.3h.3zm-2.7 4c.2.4.5.7.9 1 .1-.5.6-.9 1.1-.9.6 0 1.2.5 1.2 1.2 0 .1 0 .2-.1.4 1.9 0 3.4-1.6 3.5-3.5a3.08 3.08 0 0 0-.3-1.3c1.8 1.3 2.3 3.8 1 5.6s-3.8 2.3-5.6 1c-1.1-.7-1.7-2-1.7-3.3-.1-.1-.1-.2 0-.2z"/></svg>