<?xml version="1.0" encoding="UTF-8" standalone="no"?>
<svg
   xmlns:dc="http://purl.org/dc/elements/1.1/"
   xmlns:cc="http://creativecommons.org/ns#"
   xmlns:rdf="http://www.w3.org/1999/02/22-rdf-syntax-ns#"
   xmlns:svg="http://www.w3.org/2000/svg"
   xmlns="http://www.w3.org/2000/svg"
   xmlns:sodipodi="http://sodipodi.sourceforge.net/DTD/sodipodi-0.dtd"
   xmlns:inkscape="http://www.inkscape.org/namespaces/inkscape"
   id="Layer_1"
   data-name="Layer 1"
   viewBox="0 0 288.81155 80.554993"
   version="1.1"
   sodipodi:docname="logo.svg"
   inkscape:version="0.92.1 r15371"
   width="288.81155"
   height="80.554993">
  <metadata
     id="metadata4611">
    <rdf:RDF>
      <cc:Work
         rdf:about="">
        <dc:format>image/svg+xml</dc:format>
        <dc:type
           rdf:resource="http://purl.org/dc/dcmitype/StillImage" />
        <dc:title>panda</dc:title>
      </cc:Work>
    </rdf:RDF>
  </metadata>
  <sodipodi:namedview
     pagecolor="#ffffff"
     bordercolor="#666666"
     borderopacity="1"
     objecttolerance="10"
     gridtolerance="10"
     guidetolerance="10"
     inkscape:pageopacity="0"
     inkscape:pageshadow="2"
     inkscape:window-width="1598"
     inkscape:window-height="881"
     id="namedview4609"
     showgrid="false"
     inkscape:zoom="1.8025"
     inkscape:cx="93.617345"
     inkscape:cy="17.819998"
     inkscape:window-x="0"
     inkscape:window-y="0"
     inkscape:window-maximized="0"
     inkscape:current-layer="Layer_1"
     fit-margin-top="0"
     fit-margin-left="0"
     fit-margin-right="0"
     fit-margin-bottom="0" />
  <defs
     id="defs4570">
    <style
       id="style4568">.cls-1{fill:#494866;}</style>
  </defs>
  <title
     id="title4572">panda</title>
  <path
     class="cls-1"
     d="m 74.212351,47.483597 a 44.14,44.14 0 0 1 2,9.51 13.37,13.37 0 0 1 -0.6,3.72 c -1.52,-8.92 -6.1,-27.72 -15.4,-27.72 a 6,6 0 0 0 -2.94,0.77 c 0.47,-1 2.44,-1.69 3.39,-1.69 5.42,0 8.49,4.46 11,9.22 0.89,-4.83 0,-10.3 -3,-13.24 -4.69,-4.68 -15.8,-4.68 -20.49,0 -4.34,4.34 -1.65,14.17 2.49,19.32 a 54.83,54.83 0 0 0 0.32,16.95 11,11 0 0 1 -5,4.88 45.09,45.09 0 0 0 5.47,-0.83 c 0.56,1.3 1.15,2.54 1.78,3.7 a 17.78,17.78 0 0 0 3,4.92 10.41,10.41 0 0 0 4.73,3.22 6,6 0 0 0 1.9,0.33 h 0.16 a 8.19,8.19 0 0 0 1.21,-0.07 c 14.71,-1.66 20.8,-29.63 11.71,-38.63 a 21.87,21.87 0 0 1 -1.73,5.64 z"
     id="path4574"
     style="fill:#000000;fill-opacity:0.97512436"
     inkscape:connector-curvature="0" />
  <path
     class="cls-1"
     d="m 282.82235,44.743597 a 26.65,26.65 0 0 1 -10.61,13.3 c -5.1,-2.15 -12.19,-4.86 -18.44,-5.4 1.4,-1.53 2.48,-3.15 2.48,-4.1 0,-2.21 -5.79,0 -8,0 -2.21,0 -8,-2.21 -8,0 0,0.84 0.84,2.19 2,3.55 -6.46,1 -13.43,3.91 -18,5.91 a 26.75,26.75 0 0 1 -10.58,-13.26 c -3.65,2.37 -5.46,6.8 -5.46,11.8 0,11 6.08,21.92 13.78,23.73 l 0.33,0.07 c 0.22,0 0.43,0.08 0.64,0.11 h 0.29 c 0.32,0 0.64,0.05 1,0.05 h 0.09 c 0.3,0 0.62,0 0.94,-0.05 h 0.2 l 0.41,-0.05 c 11.13,-1.52 29.14,-18.31 28,-25.35 2.25,2.82 0.45,7.83 -3.53,12.66 a 50.7,50.7 0 0 0 3.78,3.67 52.8,52.8 0 0 0 4.66,3.66 c 4.41,3.23 9.35,5.5 13.41,5.5 a 7.38,7.38 0 0 0 0.82,0 8.07,8.07 0 0 0 4.63,-1.71 c 6.09,-3.98 10.55,-13.88 10.55,-22.29 0,-5 -1.77,-9.41 -5.39,-11.8 z"
     id="path4576"
     style="fill:#000000;fill-opacity:0.97512436"
     inkscape:connector-curvature="0" />
  <path
     class="cls-1"
     d="m 282.64235,28.663597 a 16,16 0 1 0 -21,-24.0800004 c -0.46,0 -0.92,0 -1.4,0 h -3.84 c 13.37,3.29 22.71,14.3900004 26.24,24.0800004 z"
     id="path4578"
     style="fill:#000000;fill-opacity:0.97512436"
     inkscape:connector-curvature="0" />
  <path
     class="cls-1"
     d="m 213.78235,28.663597 c 3.53,-9.69 12.87,-20.7900004 26.27,-24.1200004 h -3.84 c -0.48,0 -0.94,0 -1.4,0 a 16,16 0 1 0 -21,24.0800004 z"
     id="path4580"
     style="fill:#000000;fill-opacity:0.97512436"
     inkscape:connector-curvature="0" />
  <path
     class="cls-1"
     d="m 219.72235,28.053597 c -4.68,4.69 -4.2,15.8 0.49,20.49 4.69,4.69 11.8,1.17 16.49,-3.51 4.69,-4.68 8.2,-15.8 3.51,-20.49 -4.69,-4.69 -15.8,-1.17 -20.49,3.51 z m 9.71,4 a 1.16,1.16 0 1 1 -1.15,1.16 1.16,1.16 0 0 1 1.15,-1.12 z m -1.22,8.49 a 4,4 0 0 1 -4,-4 4,4 0 0 1 1.37,-3 3.65,3.65 0 0 0 -0.15,1 3,3 0 0 0 0,0.31 1.13,1.13 0 0 1 1.68,1 1.14,1.14 0 0 1 -0.82,1.09 3.74,3.74 0 0 0 5.86,-0.09 4,4 0 0 1 -3.94,3.69 z"
     id="path4582"
     style="fill:#000000;fill-opacity:0.97512436"
     inkscape:connector-curvature="0" />
  <path
     class="cls-1"
     d="m 276.21235,48.543597 c 4.69,-4.69 5.17,-15.8 0.49,-20.49 -4.68,-4.69 -15.8,-8.2 -20.49,-3.51 -4.69,4.69 -1.17,15.8 3.51,20.49 4.68,4.69 11.8,8.2 16.49,3.51 z m -9.22,-16.14 a 1.16,1.16 0 0 1 0,2.31 1.16,1.16 0 1 1 0,-2.31 z m -2.76,4 a 3.54,3.54 0 0 0 0.88,1 1.13,1.13 0 0 1 1.1,-0.86 1.16,1.16 0 0 1 1.16,1.16 1.36,1.36 0 0 1 -0.07,0.35 3.52,3.52 0 0 0 3.45,-3.51 3.45,3.45 0 0 0 -0.26,-1.29 4,4 0 1 1 -6.28,3.29 1,1 0 0 1 0,-0.16 z"
     id="path4584"
     style="fill:#000000;fill-opacity:0.97512436"
     inkscape:connector-curvature="0" />
  <path
     class="cls-1"
     d="m 64.212351,0.54359665 a 15.93,15.93 0 0 0 -10.82,4.22999995 c -1.59,-0.14 -3.3,-0.23 -5.18,-0.23 h -1.53 c 11.14,3.27 22.65,14.0700004 27.34,24.6200004 a 16,16 0 0 0 -9.81,-28.62000035 z"
     id="path4586"
     style="fill:#000000;fill-opacity:0.97512436"
     inkscape:connector-curvature="0" />
  <path
     class="cls-1"
     d="m 29.402351,64.323597 a 54.83,54.83 0 0 0 0.32,-16.95 c 4.14,-5.15 6.83,-15 2.49,-19.32 -4.69,-4.68 -15.8,-4.68 -20.49,0 -2.7999992,2.81 -3.7399992,7.92 -3.0499992,12.57 2.4499992,-4.79 6.0999992,-8.63 11.4599992,-8.08 a 4.31,4.31 0 0 1 1.9,0.75 5.79,5.79 0 0 0 -1.82,-0.3 c -9.3,0 -13.8799992,18.8 -15.3999992,27.72 a 13.37,13.37 0 0 1 -0.6,-3.72 48.86,48.86 0 0 1 1.9,-9.77 21.6,21.6 0 0 1 -1.61,-5.39 c -9.09,9 -3,37 11.7099992,38.63 a 8.19,8.19 0 0 0 1.21,0.07 h 0.16 a 6,6 0 0 0 1.9,-0.33 10.41,10.41 0 0 0 4.73,-3.21 17.78,17.78 0 0 0 3,-4.92 c 0.55,-1 1.07,-2.07 1.56,-3.19 a 60.29,60.29 0 0 0 6.08,0.5 11.11,11.11 0 0 1 -5.45,-5.06 z"
     id="path4588"
     style="fill:#000000;fill-opacity:0.97512436"
     inkscape:connector-curvature="0" />
  <path
     class="cls-1"
     d="M 6.4023518,29.163597 C 11.092351,18.613597 22.602351,7.8135966 33.742351,4.5435966 h -1.53 c -1.88,0 -3.59,0.09 -5.18,0.23 A 16,16 0 1 0 6.4023518,29.163597 Z"
     id="path4590"
     style="fill:#000000;fill-opacity:0.97512436"
     inkscape:connector-curvature="0" />
  <path
     class="cls-1"
     d="m 40.212351,48.543597 c -2.21,0 -8,-2.21 -8,0 0,2.21 5.79,8 8,8 2.21,0 8,-5.79 8,-8 0,-2.21 -5.79,0 -8,0 z"
     id="path4592"
     style="fill:#000000;fill-opacity:0.97512436"
     inkscape:connector-curvature="0" />
  <path
     class="cls-1"
     d="m 40.212351,60.623597 a 2.94,2.94 0 0 0 -1.64,1.64 c 0,0.45 1.19,0 1.64,0 0.45,0 1.64,0.45 1.64,0 a 2.94,2.94 0 0 0 -1.64,-1.64 z"
     id="path4594"
     style="fill:#000000;fill-opacity:0.97512436"
     inkscape:connector-curvature="0" />
  <path
     class="cls-1"
     d="m 184.21235,28.543597 c 0,-0.34 0,-0.67 -0.05,-1 a 16,16 0 0 0 -13.08,-14.73 32,32 0 0 0 -2.78,-2.27 16,16 0 0 1 11.91,5.41 16,16 0 0 0 -26.74,-11.2200004 c -0.2,0 -0.4,-0.05 -0.6,-0.06 17,4.49 27.37,21.5200004 27.37,31.8700004 0,12.27 -8.77,22.69 -23.43,26.48 a 19,19 0 0 1 -7,4.49 c 7,-0.22 14,-2 19.31,-5.78 a 18.08,18.08 0 0 1 2.67,8.92 30.58,30.58 0 0 1 -1.48,8.89 c 8.88,-4.3 19.11,-14.66 21.9,-23 a 35.54,35.54 0 0 0 -8.65,-23.51 15.88,15.88 0 0 0 0.65,-4.49 z"
     id="path4596"
     style="fill:#000000;fill-opacity:0.97512436"
     inkscape:connector-curvature="0" />
  <path
     class="cls-1"
     d="m 108.21235,36.543597 c 0,-10.35 10.35,-27.3800004 27.37,-31.8700004 -0.2,0 -0.4,0 -0.6,0.06 a 16,16 0 0 0 -26.77,11.2200004 16,16 0 0 1 11.91,-5.41 32,32 0 0 0 -2.78,2.27 16,16 0 0 0 -13.08,14.73 c 0,0.33 -0.05,0.66 -0.05,1 a 16,16 0 0 0 0.65,4.5 35.58,35.58 0 0 0 -8.649999,23.5 c 2.79,8.37 12.999999,18.73 21.899999,23 a 30.7,30.7 0 0 1 -1.47,-8.92 18.2,18.2 0 0 1 2.68,-8.94 c 5.34,3.82 12.24,5.58 19.3,5.8 a 19,19 0 0 1 -7,-4.49 c -14.64,-3.76 -23.41,-14.18 -23.41,-26.45 z"
     id="path4598"
     style="fill:#000000;fill-opacity:0.97512436"
     inkscape:connector-curvature="0" />
  <path
     class="cls-1"
     d="m 144.21235,48.543597 c -2.21,0 -8,-2.21 -8,0 0,2.21 5.79,8 8,8 2.21,0 8,-5.79 8,-8 0,-2.21 -5.79,0 -8,0 z"
     id="path4600"
     style="fill:#000000;fill-opacity:0.97512436"
     inkscape:connector-curvature="0" />
  <path
     class="cls-1"
     d="m 144.21235,60.823597 c -0.45,0 -1.64,-0.45 -1.64,0 a 2.94,2.94 0 0 0 1.64,1.64 2.94,2.94 0 0 0 1.64,-1.64 c 0,-0.45 -1.19,0 -1.64,0 z"
     id="path4602"
     style="fill:#000000;fill-opacity:0.97512436"
     inkscape:connector-curvature="0" />
  <path
     class="cls-1"
     d="m 115.49235,28.053597 c -4.68,4.69 -4.2,15.8 0.49,20.49 4.69,4.69 11.8,1.17 16.48,-3.51 4.68,-4.68 8.2,-15.8 3.52,-20.49 -4.68,-4.69 -15.77,-1.17 -20.49,3.51 z m 10.53,14.84 a 1.16,1.16 0 0 1 0,-2.31 1.16,1.16 0 1 1 0,2.31 z m -0.81,-6.35 a 3.81,3.81 0 0 0 -1.27,0.23 1.1,1.1 0 0 1 0.23,0.66 1.15,1.15 0 0 1 -1.15,1.16 1.13,1.13 0 0 1 -0.94,-0.52 4,4 0 0 0 -0.87,2.47 4.17,4.17 0 0 0 0.07,0.71 4,4 0 1 1 6.86,-3.42 4,4 0 0 0 -2.93,-1.29 z"
     id="path4604"
     style="fill:#000000;fill-opacity:0.97512436"
     inkscape:connector-curvature="0" />
  <path
     class="cls-1"
     d="m 171.98235,48.543597 c 4.68,-4.69 5.17,-15.8 0.48,-20.49 -4.69,-4.69 -15.8,-8.2 -20.48,-3.51 -4.68,4.69 -1.17,15.8 3.51,20.49 4.68,4.69 11.8,8.2 16.49,3.51 z m -9.23,-5.65 a 1.16,1.16 0 1 1 1.16,-1.15 1.15,1.15 0 0 1 -1.16,1.15 z m 1.46,-8.35 a 4,4 0 0 1 2.38,7.2 3.7,3.7 0 0 0 0.22,-1.2 3.6,3.6 0 0 0 -3.6,-3.6 h -0.29 a 1,1 0 0 1 0.11,0.47 1.16,1.16 0 0 1 -2.23,0.44 3.84,3.84 0 0 0 -0.59,0.68 v 0 a 4,4 0 0 1 4,-3.99 z"
     id="path4606"
     style="fill:#000000;fill-opacity:0.97512436"
     inkscape:connector-curvature="0" />
</svg>
