<svg id="Layer_1" data-name="Layer 1" xmlns="http://www.w3.org/2000/svg" viewBox="0 0 400 400"><defs><style>.cls-1{fill:#494866;}</style></defs><title>panda</title><path class="cls-1" d="M241.53,181a32.13,32.13,0,0,1-12.77,16c-6.13-2.59-14.63-5.84-22.13-6.49,1.68-1.83,3-3.77,3-4.92,0-2.65-6.95,0-9.6,0s-9.6-2.65-9.6,0c0,1,1,2.64,2.39,4.26-7.75,1.23-16.11,4.7-21.63,7.09A32.08,32.08,0,0,1,158.47,181c-4.3,2.83-6.47,8.15-6.47,14.15,0,13.16,7.3,26.31,16.54,28.49l.4.08.76.13.35,0a10.93,10.93,0,0,0,1.15.06h.11c.36,0,.74,0,1.12-.06h.25l.49-.07c13.35-1.82,35-22,33.61-30.42,2.7,3.38.54,9.39-4.23,15.2a61.11,61.11,0,0,0,4.53,4.4,63.44,63.44,0,0,0,5.59,4.39c5.36,3.85,11.25,6.58,16.13,6.57.33,0,.66,0,1,0a9.66,9.66,0,0,0,5.55-2.05c7.3-4.73,12.68-16.61,12.66-26.71C248,189.15,245.88,183.83,241.53,181Z"/><path class="cls-1" d="M241.31,161.66a19.18,19.18,0,1,0-25.23-28.9c-.55,0-1.11,0-1.68,0h-4.6C225.87,136.71,237.08,150,241.31,161.66Z"/><path class="cls-1" d="M158.69,161.66c4.23-11.63,15.44-24.95,31.51-28.95h-4.6c-.57,0-1.13,0-1.68,0a19.18,19.18,0,1,0-25.23,28.9Z"/><path class="cls-1" d="M165.82,160.93c-5.63,5.63-5,19,.58,24.58s14.16,1.41,19.78-4.21,9.84-19,4.22-24.59S171.44,155.31,165.82,160.93Zm11.65,4.84a1.39,1.39,0,1,1-1.39,1.39A1.39,1.39,0,0,1,177.47,165.77ZM176,175.91a4.78,4.78,0,0,1-3.16-8.38,4.21,4.21,0,0,0-.18,1.18c0,.13,0,.25,0,.38a1.35,1.35,0,0,1,.63-.17,1.38,1.38,0,0,1,1.39,1.38,1.36,1.36,0,0,1-1,1.31,4.49,4.49,0,0,0,7-.11A4.78,4.78,0,0,1,176,175.91Z"/><path class="cls-1" d="M233.6,185.51c5.62-5.62,6.21-18.95.58-24.58s-19-9.84-24.58-4.22-1.41,19,4.22,24.59S228,191.14,233.6,185.51Zm-11.07-19.37a1.39,1.39,0,1,1-1.38,1.39A1.39,1.39,0,0,1,222.53,166.14Zm-3.31,4.78a4.52,4.52,0,0,0,1.05,1.17,1.37,1.37,0,0,1,2.69.41,1.56,1.56,0,0,1-.08.43,4.21,4.21,0,0,0,3.84-5.77,4.8,4.8,0,1,1-7.52,4C219.2,171.05,219.22,171,219.22,170.92Z"/><path class="cls-1" d="M171.32,240.09v32h132v-32Zm27.33,24h-3.84L188,255.37v8.72h-4.35V248.2h4.1l6.54,8.4v-8.4h4.36Zm45.73-8a8.08,8.08,0,0,1-.61,3.18,7.28,7.28,0,0,1-1.77,2.54,8.29,8.29,0,0,1-2.84,1.66,11,11,0,0,1-3.81.61h-6.06V248.2h6.15a11.41,11.41,0,0,1,3.78.58A7.83,7.83,0,0,1,242,250.4a7,7,0,0,1,1.75,2.49,8.12,8.12,0,0,1,.6,3.16Zm41.89,8-1.13-2.86H279l-1.14,2.86h-4.6l6.74-16h4.24l6.76,16Z"/><polygon class="cls-1" points="280.28 257.8 283.85 257.8 282.08 253.31 280.28 257.8"/><path class="cls-1" d="M235.48,252.08h-1.79v8.1h1.79a4.74,4.74,0,0,0,3.2-1,3.75,3.75,0,0,0,1.21-3v0a3.79,3.79,0,0,0-1.21-3A4.69,4.69,0,0,0,235.48,252.08Z"/><path class="cls-1" d="M106.3,249.66a6.14,6.14,0,0,0-2.08-1.09,9.16,9.16,0,0,0-2.71-.37H94.68v15.89h4.4v-4.54h2.2a9.44,9.44,0,0,0,2.73-.37,6,6,0,0,0,2.15-1.09,4.93,4.93,0,0,0,1.42-1.8,5.77,5.77,0,0,0,.51-2.49v0a5.66,5.66,0,0,0-.46-2.35A4.88,4.88,0,0,0,106.3,249.66ZM103.71,254a1.87,1.87,0,0,1-.68,1.52,2.77,2.77,0,0,1-1.84.57H99.08v-4.2h2.09a3,3,0,0,1,1.86.52,1.8,1.8,0,0,1,.68,1.54Z"/><path class="cls-1" d="M143.27,248.09l-6.74,16h4.61l1.13-2.86h6.15l1.14,2.86h4.72l-6.77-16Zm.3,9.71,1.79-4.5,1.77,4.5Z"/></svg>