<svg id="Layer_1" data-name="Layer 1" xmlns="http://www.w3.org/2000/svg" viewBox="0 0 400 400"><defs><style>.cls-1{fill:#494866;}</style></defs><title>panda</title><path class="cls-1" d="M232.69,110.79a44.14,44.14,0,0,1,2,9.51,13.63,13.63,0,0,1-.6,3.72c-1.52-8.91-6.1-27.72-15.4-27.72a6,6,0,0,0-3,.78c.48-1,2.45-1.7,3.4-1.7,5.42,0,8.48,4.46,11,9.22.89-4.83,0-10.29-3-13.23-4.68-4.69-15.8-4.69-20.48,0-4.34,4.33-1.65,14.16,2.49,19.32a54.46,54.46,0,0,0,.32,16.94,11.07,11.07,0,0,1-5,4.89,47.33,47.33,0,0,0,5.48-.84c.56,1.31,1.15,2.55,1.78,3.71a17.57,17.57,0,0,0,3,4.91,10.41,10.41,0,0,0,4.73,3.22,5.93,5.93,0,0,0,1.9.33h.15a7.08,7.08,0,0,0,1.22-.07c14.71-1.65,20.8-29.63,11.71-38.63A21.87,21.87,0,0,1,232.69,110.79Z"/><path class="cls-1" d="M233.32,300.06a26.74,26.74,0,0,1-10.65,13.3c-5.1-2.16-12.19-4.87-18.44-5.41,1.4-1.53,2.48-3.15,2.48-4.1,0-2.21-5.79,0-8,0s-8-2.21-8,0c0,.84.83,2.2,2,3.55-6.46,1-13.43,3.91-18,5.91a26.74,26.74,0,0,1-10.57-13.25c-3.58,2.36-5.39,6.79-5.39,11.79,0,11,6.08,21.93,13.78,23.74l.33.07.64.1.29,0c.32,0,.64.05,1,.05h.09c.3,0,.62,0,.93-.05h.21l.41-.06c11.13-1.51,29.14-18.3,28-25.35,2.25,2.82.45,7.83-3.53,12.67,1.16,1.25,2.43,2.48,3.78,3.67a54.73,54.73,0,0,0,4.66,3.66c4.46,3.2,9.37,5.47,13.44,5.47a7.5,7.5,0,0,0,.82,0,8.06,8.06,0,0,0,4.63-1.7c6.08-3.95,10.56-13.85,10.55-22.26C238.7,306.88,236.94,302.45,233.32,300.06Z"/><path class="cls-1" d="M233.14,284a16,16,0,1,0-21-24.08c-.46,0-.92,0-1.4,0h-3.84C220.27,263.18,229.6,274.28,233.14,284Z"/><path class="cls-1" d="M164.28,284c3.53-9.69,12.87-20.79,26.26-24.12h-3.83c-.48,0-1,0-1.4,0a16,16,0,1,0-21,24.08Z"/><path class="cls-1" d="M170.22,283.37c-4.68,4.68-4.2,15.8.49,20.48s11.8,1.17,16.48-3.51,8.2-15.8,3.52-20.49S174.91,278.68,170.22,283.37Zm9.71,4a1.16,1.16,0,1,1,0,2.31,1.16,1.16,0,0,1,0-2.31Zm-1.22,8.45a4,4,0,0,1-2.64-7,4.08,4.08,0,0,0-.14,1,3,3,0,0,0,0,.31,1.14,1.14,0,1,1,.86,2.11,3.73,3.73,0,0,0,5.86-.1A4,4,0,0,1,178.71,295.85Z"/><path class="cls-1" d="M226.71,303.85c4.68-4.68,5.17-15.8.48-20.48s-15.8-8.2-20.48-3.52-1.17,15.8,3.51,20.49S222,308.54,226.71,303.85Zm-9.23-16.14a1.16,1.16,0,1,1-1.15,1.15A1.16,1.16,0,0,1,217.48,287.71Zm-2.76,4a3.56,3.56,0,0,0,.88,1,1.15,1.15,0,0,1,2.25.35,1.05,1.05,0,0,1-.08.35,3.51,3.51,0,0,0,3.45-3.51,3.45,3.45,0,0,0-.25-1.29,4,4,0,1,1-6.26,3.29C214.71,291.8,214.72,291.75,214.72,291.69Z"/><path class="cls-1" d="M222.71,63.85a15.94,15.94,0,0,0-10.82,4.24c-1.59-.15-3.31-.24-5.18-.24h-1.54c11.15,3.27,22.65,14.07,27.34,24.63a16,16,0,0,0-9.8-28.63Z"/><path class="cls-1" d="M187.9,127.63a54.77,54.77,0,0,0,.32-16.94c4.14-5.16,6.82-15,2.49-19.32-4.69-4.69-15.8-4.69-20.49,0-2.8,2.8-3.74,7.91-3.05,12.57,2.45-4.8,6.1-8.64,11.46-8.09a4.31,4.31,0,0,1,1.9.75,6.09,6.09,0,0,0-1.82-.3c-9.31,0-13.88,18.81-15.4,27.72a12.9,12.9,0,0,1-.6-3.72,49,49,0,0,1,1.9-9.77,21.48,21.48,0,0,1-1.61-5.39c-9.09,9-3,37,11.71,38.63a7,7,0,0,0,1.21.07h.15a6,6,0,0,0,1.91-.33,10.41,10.41,0,0,0,4.73-3.22,18.06,18.06,0,0,0,3-4.91c.54-1,1.06-2.08,1.56-3.19a60.3,60.3,0,0,0,6.08.49A11.11,11.11,0,0,1,187.9,127.63Z"/><path class="cls-1" d="M164.9,92.48c4.69-10.56,16.2-21.36,27.34-24.63h-1.53c-1.88,0-3.59.09-5.19.24A16,16,0,1,0,164.9,92.48Z"/><path class="cls-1" d="M198.71,111.85c-2.21,0-8-2.21-8,0s5.79,8,8,8,8-5.79,8-8S200.92,111.85,198.71,111.85Z"/><path class="cls-1" d="M198.71,123.93a2.94,2.94,0,0,0-1.64,1.64c0,.45,1.19,0,1.64,0s1.64.45,1.64,0A2.94,2.94,0,0,0,198.71,123.93Z"/><path class="cls-1" d="M239.19,188.34c0-.34,0-.67-.05-1a16,16,0,0,0-13.08-14.73,32,32,0,0,0-2.78-2.27,16,16,0,0,1,11.88,5.41,16,16,0,0,0-26.73-11.23l-.61-.06c17,4.49,27.37,21.53,27.37,31.88,0,12.27-8.77,22.69-23.43,26.47a18.88,18.88,0,0,1-7,4.5c7-.23,14-2,19.3-5.78a18.08,18.08,0,0,1,2.67,8.92,30.63,30.63,0,0,1-1.47,8.91c8.88-4.31,19.11-14.66,21.9-23a35.57,35.57,0,0,0-8.65-23.52A15.76,15.76,0,0,0,239.19,188.34Z"/><path class="cls-1" d="M163.19,196.34c0-10.35,10.35-27.39,27.37-31.88l-.6.06a16,16,0,0,0-26.74,11.23,16,16,0,0,1,11.89-5.41,30.68,30.68,0,0,0-2.79,2.27,16,16,0,0,0-13.08,14.73c0,.33-.05.66-.05,1a16.19,16.19,0,0,0,.65,4.49,35.64,35.64,0,0,0-8.65,23.51c2.79,8.37,13,18.73,21.91,23a30.7,30.7,0,0,1-1.47-8.92,18.15,18.15,0,0,1,2.67-8.94c5.34,3.82,12.24,5.57,19.3,5.8a18.92,18.92,0,0,1-7-4.5C172,219,163.19,208.61,163.19,196.34Z"/><path class="cls-1" d="M199.19,208.34c-2.21,0-8-2.21-8,0s5.79,8,8,8,8-5.79,8-8S201.4,208.34,199.19,208.34Z"/><path class="cls-1" d="M199.19,220.62c-.45,0-1.64-.45-1.64,0a2.94,2.94,0,0,0,1.64,1.64,2.94,2.94,0,0,0,1.64-1.64C200.83,220.17,199.64,220.62,199.19,220.62Z"/><path class="cls-1" d="M170.47,187.85c-4.68,4.69-4.2,15.8.49,20.49s11.8,1.17,16.48-3.52,8.2-15.8,3.52-20.48S175.16,183.17,170.47,187.85ZM181,202.69a1.16,1.16,0,1,1,1.16-1.15A1.16,1.16,0,0,1,181,202.69Zm-.81-6.35a4.08,4.08,0,0,0-1.27.22,1.12,1.12,0,0,1,.24.67,1.15,1.15,0,0,1-1.16,1.15,1.12,1.12,0,0,1-.93-.51,4,4,0,0,0-.88,2.47,4.05,4.05,0,0,0,.07.7,4,4,0,1,1,6.86-3.41A4,4,0,0,0,180.19,196.34Z"/><path class="cls-1" d="M227,208.34c4.68-4.69,5.17-15.8.48-20.49s-15.8-8.2-20.48-3.51-1.17,15.8,3.51,20.48S222.27,213,227,208.34Zm-9.22-5.65a1.16,1.16,0,1,1,1.15-1.15A1.16,1.16,0,0,1,217.74,202.69Zm1.45-8.35a4,4,0,0,1,2.38,7.2,3.45,3.45,0,0,0,.22-1.2,3.6,3.6,0,0,0-3.6-3.6l-.29,0a1,1,0,0,1,.11.47,1.15,1.15,0,0,1-1.16,1.15,1.14,1.14,0,0,1-1.06-.71,3.53,3.53,0,0,0-.6.68h0A4,4,0,0,1,219.19,194.34Z"/></svg>