<?xml version="1.0" encoding="UTF-8" standalone="no"?>
<svg
   xmlns:dc="http://purl.org/dc/elements/1.1/"
   xmlns:cc="http://creativecommons.org/ns#"
   xmlns:rdf="http://www.w3.org/1999/02/22-rdf-syntax-ns#"
   xmlns:svg="http://www.w3.org/2000/svg"
   xmlns="http://www.w3.org/2000/svg"
   xmlns:sodipodi="http://sodipodi.sourceforge.net/DTD/sodipodi-0.dtd"
   xmlns:inkscape="http://www.inkscape.org/namespaces/inkscape"
   id="Layer_1"
   data-name="Layer 1"
   viewBox="0 0 95.980057 95.971779"
   version="1.1"
   sodipodi:docname="panda.svg"
   inkscape:version="0.92.1 r15371"
   width="95.980057"
   height="95.971779">
  <metadata
     id="metadata4643">
    <rdf:RDF>
      <cc:Work
         rdf:about="">
        <dc:format>image/svg+xml</dc:format>
        <dc:type
           rdf:resource="http://purl.org/dc/dcmitype/StillImage" />
        <dc:title>pandas_1</dc:title>
      </cc:Work>
    </rdf:RDF>
  </metadata>
  <sodipodi:namedview
     pagecolor="#ffffff"
     bordercolor="#666666"
     borderopacity="1"
     objecttolerance="10"
     gridtolerance="10"
     guidetolerance="10"
     inkscape:pageopacity="0"
     inkscape:pageshadow="2"
     inkscape:window-width="1598"
     inkscape:window-height="881"
     id="namedview4641"
     showgrid="false"
     inkscape:zoom="1.8025"
     inkscape:cx="72.380541"
     inkscape:cy="48.04"
     inkscape:window-x="0"
     inkscape:window-y="0"
     inkscape:window-maximized="0"
     inkscape:current-layer="Layer_1"
     fit-margin-top="0"
     fit-margin-left="0"
     fit-margin-right="0"
     fit-margin-bottom="0" />
  <defs
     id="defs4626">
    <style
       id="style4624">.cls-1{fill:#494866;}</style>
  </defs>
  <title
     id="title4628">pandas_1</title>
  <path
     class="cls-1"
     d="m 89.5,52.981781 a 32.13,32.13 0 0 1 -12.77,16 c -6.13,-2.6 -14.63,-5.84 -22.13,-6.49 1.68,-1.84 3,-3.78 3,-4.92 0,-2.65 -6.95,0 -9.6,0 -2.65,0 -9.6,-2.65 -9.6,0 0,1 1,2.63 2.39,4.26 -7.75,1.22 -16.11,4.69 -21.63,7.09 a 32.08,32.08 0 0 1 -12.69,-15.9 c -4.3,2.83 -6.47,8.14 -6.47,14.15 0,13.16 7.3,26.31 16.54,28.48 l 0.4,0.09 c 0.25,0 0.5,0.09 0.76,0.12 l 0.35,0.05 c 0.38,0 0.76,0.06 1.15,0.06 h 0.11 c 0.36,0 0.74,0 1.12,-0.06 h 0.25 l 0.49,-0.07 c 13.35,-1.81 35,-22 33.61,-30.41 2.7,3.38 0.54,9.39 -4.23,15.19 1.39,1.5 2.91,3 4.53,4.41 a 65.37,65.37 0 0 0 5.59,4.39 c 5.3,3.78 11.22,6.51 16.1,6.51 0.33,0 0.66,0 1,-0.05 a 9.59,9.59 0 0 0 5.55,-2 c 7.3,-4.73 12.68,-16.61 12.66,-26.7 -0.01,-6.02 -2.13,-11.34 -6.48,-14.2 z"
     id="path4630"
     style="fill:#000000;fill-opacity:0.99004977"
     inkscape:connector-curvature="0" />
  <path
     class="cls-1"
     d="M 89.28,33.671781 A 19.181781,19.181781 0 1 0 64.05,4.7717811 c -0.55,0 -1.11,0 -1.68,0 h -4.6 c 16.07,3.96 27.28,17.2699999 31.51,28.8999999 z"
     id="path4632"
     style="fill:#000000;fill-opacity:0.99004977"
     inkscape:connector-curvature="0" />
  <path
     class="cls-1"
     d="M 6.66,33.671781 C 10.89,22.041781 22.1,8.7317811 38.17,4.7317811 h -4.6 c -0.57,0 -1.13,0 -1.68,0 A 19.181781,19.181781 0 1 0 6.66,33.631781 Z"
     id="path4634"
     style="fill:#000000;fill-opacity:0.99004977"
     inkscape:connector-curvature="0" />
  <path
     class="cls-1"
     d="m 13.79,32.931781 c -5.63,5.62 -5,19 0.58,24.58 5.58,5.58 14.16,1.41 19.78,-4.22 5.62,-5.63 9.84,-19 4.22,-24.58 -5.62,-5.58 -18.96,-1.39 -24.58,4.22 z m 11.65,4.84 a 1.39,1.39 0 1 1 -1.39,1.39 1.38,1.38 0 0 1 1.39,-1.37 z m -1.47,10.16 a 4.78,4.78 0 0 1 -3.16,-8.39 4.28,4.28 0 0 0 -0.18,1.19 c 0,0.13 0,0.25 0,0.37 a 1.35,1.35 0 0 1 0.63,-0.17 1.39,1.39 0 0 1 1.39,1.39 1.36,1.36 0 0 1 -1,1.3 4.48,4.48 0 0 0 7,-0.11 4.79,4.79 0 0 1 -4.68,4.42 z"
     id="path4636"
     style="fill:#000000;fill-opacity:0.99004977"
     inkscape:connector-curvature="0" />
  <path
     class="cls-1"
     d="m 81.57,57.531781 c 5.62,-5.62 6.21,-19 0.58,-24.58 -5.63,-5.58 -19,-9.84 -24.58,-4.22 -5.58,5.62 -1.41,19 4.22,24.58 5.63,5.58 14.18,9.84 19.78,4.22 z m -11.07,-19.37 a 1.39,1.39 0 1 1 -1.38,1.38 1.38,1.38 0 0 1 1.38,-1.38 z m -3.31,4.77 a 4.48,4.48 0 0 0 1.05,1.16 1.38,1.38 0 0 1 2.69,0.42 1.42,1.42 0 0 1 -0.08,0.42 4.2,4.2 0 0 0 3.84,-5.76 4.8,4.8 0 1 1 -7.52,3.95 c 0,-0.06 0.02,-0.12 0.02,-0.19 z"
     id="path4638"
     style="fill:#000000;fill-opacity:0.99004977"
     inkscape:connector-curvature="0" />
</svg>
