<svg id="Layer_1" data-name="Layer 1" xmlns="http://www.w3.org/2000/svg" viewBox="0 0 400 400"><defs><style>.cls-1{fill:#494866;}</style></defs><title>panda</title><path class="cls-1" d="M230.05,137.59a44.14,44.14,0,0,1,2,9.51,13.31,13.31,0,0,1-.6,3.72c-1.52-8.91-6.1-27.72-15.4-27.72a5.92,5.92,0,0,0-2.94.78c.47-1,2.44-1.7,3.39-1.7,5.42,0,8.49,4.46,11,9.22.89-4.83,0-10.29-2.95-13.23-4.69-4.69-15.8-4.69-20.49,0-4.34,4.33-1.65,14.16,2.49,19.32a54.77,54.77,0,0,0,.32,16.94,11,11,0,0,1-5,4.88,45.09,45.09,0,0,0,5.47-.83c.56,1.31,1.15,2.55,1.78,3.71a17.72,17.72,0,0,0,3,4.91,10.41,10.41,0,0,0,4.73,3.22,6,6,0,0,0,1.9.33h.16a8.19,8.19,0,0,0,1.21-.07c14.71-1.65,20.8-29.63,11.71-38.63A21.87,21.87,0,0,1,230.05,137.59Z"/><path class="cls-1" d="M282.64,224.86A26.74,26.74,0,0,1,272,238.16c-5.1-2.16-12.18-4.87-18.43-5.41,1.4-1.53,2.47-3.15,2.47-4.1,0-2.21-5.79,0-8,0s-8-2.21-8,0c0,.84.84,2.19,2,3.55-6.45,1-13.42,3.91-18,5.91a26.77,26.77,0,0,1-10.58-13.25c-3.58,2.36-5.39,6.79-5.39,11.79,0,11,6.09,21.93,13.78,23.74l.34.07.63.1.29,0c.32,0,.64,0,1,0h.09c.3,0,.62,0,.94,0h.2l.41-.06c11.13-1.51,29.14-18.3,28-25.35,2.25,2.82.46,7.83-3.53,12.67,1.16,1.24,2.43,2.48,3.78,3.67a52.68,52.68,0,0,0,4.66,3.65c4.47,3.21,9.38,5.48,13.44,5.48a7.38,7.38,0,0,0,.82,0,8,8,0,0,0,4.63-1.7c6.09-4,10.57-13.85,10.55-22.26C288,231.68,286.26,227.24,282.64,224.86Z"/><path class="cls-1" d="M282.46,208.77a16,16,0,1,0-21-24.08c-.45,0-.92,0-1.4,0H256.2C269.59,188,278.93,199.08,282.46,208.77Z"/><path class="cls-1" d="M213.6,208.77c3.54-9.69,12.87-20.79,26.27-24.12H236c-.48,0-.94,0-1.4,0a16,16,0,1,0-21,24.08Z"/><path class="cls-1" d="M219.55,208.17c-4.69,4.68-4.2,15.8.48,20.48s11.8,1.17,16.49-3.51,8.2-15.8,3.51-20.49S224.23,203.48,219.55,208.17Zm9.7,4a1.16,1.16,0,1,1-1.15,1.16A1.16,1.16,0,0,1,229.25,212.2ZM228,220.65a4,4,0,0,1-2.63-7,3.65,3.65,0,0,0-.15,1,3,3,0,0,0,0,.31,1.13,1.13,0,0,1,1.68,1,1.13,1.13,0,0,1-.82,1.08A3.74,3.74,0,0,0,232,217,4,4,0,0,1,228,220.65Z"/><path class="cls-1" d="M276,228.65c4.69-4.68,5.17-15.8.49-20.48s-15.8-8.2-20.49-3.52-1.17,15.8,3.52,20.49S271.35,233.34,276,228.65Zm-9.22-16.14a1.16,1.16,0,1,1-1.16,1.15A1.15,1.15,0,0,1,266.81,212.51Zm-2.76,4a3.4,3.4,0,0,0,.88,1,1.15,1.15,0,0,1,2.24.35,1.36,1.36,0,0,1-.07.35,3.51,3.51,0,0,0,3.45-3.51,3.45,3.45,0,0,0-.26-1.29,4,4,0,1,1-6.26,3.29C264,216.6,264.05,216.55,264.05,216.49Z"/><path class="cls-1" d="M220.07,90.65a15.94,15.94,0,0,0-10.82,4.24c-1.59-.15-3.3-.24-5.18-.24h-1.53c11.14,3.27,22.65,14.07,27.34,24.63a16,16,0,0,0-9.81-28.63Z"/><path class="cls-1" d="M185.26,154.43a54.77,54.77,0,0,0,.32-16.94c4.14-5.16,6.83-15,2.49-19.32-4.69-4.69-15.8-4.69-20.49,0-2.8,2.8-3.74,7.91-3.05,12.56,2.45-4.79,6.1-8.63,11.46-8.08a4.31,4.31,0,0,1,1.9.75,5.79,5.79,0,0,0-1.82-.3c-9.3,0-13.88,18.81-15.4,27.72a13.31,13.31,0,0,1-.6-3.72,48.86,48.86,0,0,1,1.9-9.77,21.48,21.48,0,0,1-1.61-5.39c-9.09,9-3,37,11.71,38.63a8.11,8.11,0,0,0,1.21.07h.16a6,6,0,0,0,1.9-.33,10.41,10.41,0,0,0,4.73-3.22,18,18,0,0,0,3-4.91c.55-1,1.07-2.08,1.56-3.19,2,.27,4,.41,6.08.49A11.11,11.11,0,0,1,185.26,154.43Z"/><path class="cls-1" d="M162.26,119.28c4.69-10.56,16.2-21.36,27.34-24.63h-1.53c-1.88,0-3.59.09-5.18.24a16,16,0,1,0-20.63,24.39Z"/><path class="cls-1" d="M196.07,138.65c-2.21,0-8-2.21-8,0s5.79,8,8,8,8-5.79,8-8S198.28,138.65,196.07,138.65Z"/><path class="cls-1" d="M196.07,150.73a2.94,2.94,0,0,0-1.64,1.64c0,.45,1.19,0,1.64,0s1.64.45,1.64,0A2.94,2.94,0,0,0,196.07,150.73Z"/><path class="cls-1" d="M184.11,209.14c0-.34,0-.67-.05-1A16,16,0,0,0,171,193.41a30.68,30.68,0,0,0-2.79-2.27,16,16,0,0,1,11.89,5.4,16,16,0,0,0-26.74-11.22l-.6-.06c17,4.49,27.37,21.53,27.37,31.88,0,12.27-8.77,22.69-23.43,26.47a18.92,18.92,0,0,1-7,4.5c7.05-.23,14-2,19.31-5.78a18.17,18.17,0,0,1,2.66,8.92,30.49,30.49,0,0,1-1.46,8.9c8.88-4.3,19.11-14.65,21.9-23a35.57,35.57,0,0,0-8.65-23.52A16.12,16.12,0,0,0,184.11,209.14Z"/><path class="cls-1" d="M108.11,217.14c0-10.35,10.35-27.39,27.37-31.88l-.61.06a16,16,0,0,0-26.73,11.22,16,16,0,0,1,11.88-5.4,32,32,0,0,0-2.78,2.27,16,16,0,0,0-13.08,14.73c0,.33,0,.66,0,1a15.82,15.82,0,0,0,.65,4.49,35.64,35.64,0,0,0-8.65,23.51c2.79,8.37,13,18.73,21.9,23a30.7,30.7,0,0,1-1.47-8.92,18.17,18.17,0,0,1,2.68-8.94c5.34,3.82,12.24,5.57,19.29,5.8a18.88,18.88,0,0,1-7-4.5C116.88,239.83,108.11,229.41,108.11,217.14Z"/><path class="cls-1" d="M144.11,229.14c-2.21,0-8-2.21-8,0s5.79,8,8,8,8-5.79,8-8S146.32,229.14,144.11,229.14Z"/><path class="cls-1" d="M144.11,241.42c-.45,0-1.64-.46-1.64,0a2.94,2.94,0,0,0,1.64,1.64,2.94,2.94,0,0,0,1.64-1.64C145.75,241,144.56,241.42,144.11,241.42Z"/><path class="cls-1" d="M115.39,208.65c-4.69,4.69-4.2,15.8.49,20.49s11.79,1.17,16.48-3.52,8.2-15.8,3.52-20.48S120.08,204,115.39,208.65Zm10.53,14.84a1.16,1.16,0,1,1,1.16-1.16A1.15,1.15,0,0,1,125.92,223.49Zm-.81-6.35a4.08,4.08,0,0,0-1.27.22,1.17,1.17,0,0,1,.23.67,1.14,1.14,0,0,1-2.09.64,4,4,0,0,0-.87,2.47,4.05,4.05,0,0,0,.07.7,4,4,0,1,1,6.86-3.41A4,4,0,0,0,125.11,217.14Z"/><path class="cls-1" d="M171.88,229.14c4.68-4.69,5.17-15.8.48-20.49s-15.8-8.2-20.48-3.51-1.18,15.79,3.51,20.48S167.19,233.82,171.88,229.14Zm-9.23-5.65a1.16,1.16,0,1,1,1.16-1.16A1.15,1.15,0,0,1,162.65,223.49Zm1.46-8.35a4,4,0,0,1,4,4,4,4,0,0,1-1.62,3.19,3.56,3.56,0,0,0-3.38-4.79h-.29a1.3,1.3,0,0,1,.11.48,1.16,1.16,0,0,1-1.16,1.15,1.15,1.15,0,0,1-1.07-.72,4.3,4.3,0,0,0-.59.69h0A4,4,0,0,1,164.11,215.14Z"/><path class="cls-1" d="M170.39,277.35v32h132v-32Zm27.33,24h-3.84l-6.81-8.72v8.72h-4.35V285.46h4.1l6.54,8.4v-8.4h4.36Zm45.73-8a8.17,8.17,0,0,1-.61,3.19,7.24,7.24,0,0,1-1.77,2.53,8.47,8.47,0,0,1-2.84,1.67,11.28,11.28,0,0,1-3.81.6h-6.06V285.46h6.15a11.41,11.41,0,0,1,3.78.58,8.14,8.14,0,0,1,2.81,1.62,7,7,0,0,1,1.75,2.49,8.12,8.12,0,0,1,.6,3.16Zm41.89,8-1.13-2.86h-6.15l-1.14,2.86h-4.6l6.74-16h4.24l6.76,16Z"/><polygon class="cls-1" points="279.35 295.06 282.92 295.06 281.15 290.57 279.35 295.06"/><path class="cls-1" d="M234.55,289.34h-1.79v8.1h1.79a4.69,4.69,0,0,0,3.2-1,3.73,3.73,0,0,0,1.21-3v-.05a3.76,3.76,0,0,0-1.21-3A4.65,4.65,0,0,0,234.55,289.34Z"/><path class="cls-1" d="M105.37,286.93a5.81,5.81,0,0,0-2.08-1.09,9.15,9.15,0,0,0-2.71-.38H93.75v15.89h4.4v-4.54h2.2a9.8,9.8,0,0,0,2.73-.36,6.32,6.32,0,0,0,2.15-1.09,5,5,0,0,0,1.42-1.81,5.72,5.72,0,0,0,.51-2.48V291a5.66,5.66,0,0,0-.46-2.35A4.76,4.76,0,0,0,105.37,286.93Zm-2.59,4.34a1.85,1.85,0,0,1-.68,1.52,2.77,2.77,0,0,1-1.84.57H98.15v-4.2h2.09a3,3,0,0,1,1.86.52,1.82,1.82,0,0,1,.68,1.55Z"/><path class="cls-1" d="M142.34,285.35l-6.74,16h4.61l1.13-2.86h6.15l1.14,2.86h4.72l-6.77-16Zm.3,9.71,1.79-4.49,1.77,4.49Z"/></svg>