<svg id="Layer_1" data-name="Layer 1" xmlns="http://www.w3.org/2000/svg" viewBox="0 0 400 400"><defs><style>.cls-1{fill:#494866;}</style></defs><title>panda</title><path class="cls-1" d="M232.69,86.39a44.14,44.14,0,0,1,2,9.51,13.69,13.69,0,0,1-.6,3.72c-1.52-8.92-6.1-27.72-15.4-27.72a6.09,6.09,0,0,0-3,.77c.48-1,2.45-1.69,3.4-1.69,5.42,0,8.48,4.46,11,9.22.89-4.83,0-10.3-3-13.23-4.68-4.69-15.8-4.69-20.48,0-4.34,4.33-1.65,14.16,2.49,19.31a54.52,54.52,0,0,0,.32,17,11,11,0,0,1-5,4.88,45.25,45.25,0,0,0,5.48-.83c.56,1.3,1.15,2.55,1.78,3.7a17.78,17.78,0,0,0,3,4.92,10.41,10.41,0,0,0,4.73,3.22,5.93,5.93,0,0,0,1.9.33h.15a8.24,8.24,0,0,0,1.22-.07c14.71-1.66,20.8-29.63,11.71-38.63A21.87,21.87,0,0,1,232.69,86.39Z"/><path class="cls-1" d="M233.32,275.66A26.74,26.74,0,0,1,222.67,289c-5.1-2.16-12.19-4.87-18.44-5.41,1.4-1.53,2.48-3.15,2.48-4.1,0-2.21-5.79,0-8,0s-8-2.21-8,0c0,.84.83,2.19,2,3.55-6.46,1-13.43,3.91-18,5.91a26.74,26.74,0,0,1-10.57-13.25c-3.58,2.36-5.39,6.78-5.39,11.79,0,11,6.08,21.92,13.78,23.73l.33.08.64.1.29,0c.32,0,.64.05,1,.05h.09c.3,0,.62,0,.93-.05l.21,0,.41-.05c11.13-1.52,29.14-18.31,28-25.35,2.25,2.82.45,7.83-3.53,12.66a53.4,53.4,0,0,0,8.44,7.33c4.46,3.21,9.37,5.48,13.44,5.48a7.5,7.5,0,0,0,.82,0,8.07,8.07,0,0,0,4.63-1.71c6.08-3.94,10.56-13.84,10.55-22.25C238.7,282.48,236.94,278,233.32,275.66Z"/><path class="cls-1" d="M233.14,259.57a16,16,0,1,0-21-24.08c-.46,0-.92,0-1.4,0h-3.84C220.27,238.78,229.6,249.88,233.14,259.57Z"/><path class="cls-1" d="M164.28,259.57c3.53-9.69,12.87-20.79,26.26-24.12h-3.83c-.48,0-1,0-1.4,0a16,16,0,1,0-21,24.08Z"/><path class="cls-1" d="M170.22,259c-4.68,4.68-4.2,15.79.49,20.48s11.8,1.17,16.48-3.51,8.2-15.8,3.52-20.49S174.91,254.28,170.22,259Zm9.71,4a1.16,1.16,0,1,1-1.15,1.16A1.16,1.16,0,0,1,179.93,263Zm-1.22,8.45a4,4,0,0,1-2.64-7,4.08,4.08,0,0,0-.14,1,3,3,0,0,0,0,.31,1.13,1.13,0,0,1,1.68,1,1.14,1.14,0,0,1-.82,1.09,3.75,3.75,0,0,0,2.89,1.37,3.79,3.79,0,0,0,3-1.46A4,4,0,0,1,178.71,271.45Z"/><path class="cls-1" d="M226.71,279.45c4.68-4.69,5.17-15.8.48-20.48s-15.8-8.21-20.48-3.52-1.17,15.8,3.51,20.49S222,284.14,226.71,279.45Zm-9.23-16.14a1.16,1.16,0,1,1-1.15,1.15A1.15,1.15,0,0,1,217.48,263.31Zm-2.76,4a3.71,3.71,0,0,0,.88,1,1.14,1.14,0,0,1,1.09-.81,1.16,1.16,0,0,1,1.16,1.16,1.05,1.05,0,0,1-.08.35,3.52,3.52,0,0,0,3.45-3.51,3.45,3.45,0,0,0-.25-1.29,4,4,0,1,1-6.26,3.29C214.71,267.4,214.72,267.35,214.72,267.29Z"/><path class="cls-1" d="M222.71,39.45a15.93,15.93,0,0,0-10.82,4.23c-1.59-.14-3.31-.23-5.18-.23h-1.54c11.15,3.27,22.65,14.07,27.34,24.62a16,16,0,0,0-9.8-28.62Z"/><path class="cls-1" d="M187.9,103.23a54.83,54.83,0,0,0,.32-17c4.14-5.15,6.82-15,2.49-19.31-4.69-4.69-15.8-4.69-20.49,0-2.8,2.8-3.74,7.91-3.05,12.56,2.45-4.79,6.1-8.63,11.46-8.08a4.31,4.31,0,0,1,1.9.75,5.79,5.79,0,0,0-1.82-.3c-9.31,0-13.88,18.8-15.4,27.72a13,13,0,0,1-.6-3.72,48.86,48.86,0,0,1,1.9-9.77A21.48,21.48,0,0,1,163,80.74c-9.09,9-3,37,11.71,38.63a8.11,8.11,0,0,0,1.21.07h.15a6,6,0,0,0,1.91-.33,10.41,10.41,0,0,0,4.73-3.22,18.27,18.27,0,0,0,3-4.92c.54-1,1.06-2.07,1.56-3.19a60.29,60.29,0,0,0,6.08.5A11.11,11.11,0,0,1,187.9,103.23Z"/><path class="cls-1" d="M164.9,68.07c4.69-10.55,16.2-21.35,27.34-24.62h-1.53c-1.88,0-3.59.09-5.19.23A16,16,0,1,0,164.9,68.07Z"/><path class="cls-1" d="M198.71,87.45c-2.21,0-8-2.21-8,0s5.79,8,8,8,8-5.79,8-8S200.92,87.45,198.71,87.45Z"/><path class="cls-1" d="M198.71,99.53a2.94,2.94,0,0,0-1.64,1.64c0,.45,1.19,0,1.64,0s1.64.45,1.64,0A2.94,2.94,0,0,0,198.71,99.53Z"/><path class="cls-1" d="M239.19,163.93c0-.33,0-.66-.05-1a16,16,0,0,0-13.08-14.72,30.24,30.24,0,0,0-2.78-2.27,15.91,15.91,0,0,1,11.88,5.4,16,16,0,0,0-26.73-11.22l-.61-.06c17,4.49,27.37,21.52,27.37,31.87,0,12.28-8.77,22.7-23.43,26.48a18.88,18.88,0,0,1-7,4.5c7-.23,14-2,19.3-5.78a18.08,18.08,0,0,1,2.67,8.92,30.57,30.57,0,0,1-1.47,8.9c8.88-4.3,19.11-14.65,21.9-23a35.54,35.54,0,0,0-8.65-23.51A15.82,15.82,0,0,0,239.19,163.93Z"/><path class="cls-1" d="M163.19,171.93c0-10.35,10.35-27.38,27.37-31.87l-.6.06a16,16,0,0,0-26.74,11.22,15.94,15.94,0,0,1,11.89-5.4,29.08,29.08,0,0,0-2.79,2.27,16,16,0,0,0-13.08,14.72c0,.34-.05.67-.05,1a16.26,16.26,0,0,0,.65,4.5,35.61,35.61,0,0,0-8.65,23.5c2.79,8.37,13,18.74,21.91,23a30.7,30.7,0,0,1-1.47-8.92,18.12,18.12,0,0,1,2.67-8.94c5.34,3.82,12.24,5.57,19.3,5.8a18.92,18.92,0,0,1-7-4.5C172,194.63,163.19,184.21,163.19,171.93Z"/><path class="cls-1" d="M199.19,183.93c-2.21,0-8-2.2-8,0s5.79,8,8,8,8-5.79,8-8S201.4,183.93,199.19,183.93Z"/><path class="cls-1" d="M199.19,196.22c-.45,0-1.64-.46-1.64,0a2.92,2.92,0,0,0,1.64,1.63,2.92,2.92,0,0,0,1.64-1.63C200.83,195.76,199.64,196.22,199.19,196.22Z"/><path class="cls-1" d="M170.47,163.45c-4.68,4.69-4.2,15.8.49,20.48s11.8,1.18,16.48-3.51,8.2-15.8,3.52-20.49S175.16,158.76,170.47,163.45ZM181,178.29a1.16,1.16,0,1,1,1.16-1.16A1.16,1.16,0,0,1,181,178.29Zm-.81-6.36a3.81,3.81,0,0,0-1.27.23,1.11,1.11,0,0,1,.24.66A1.16,1.16,0,0,1,178,174a1.12,1.12,0,0,1-.93-.51,4,4,0,0,0-.88,2.46,4.07,4.07,0,0,0,.07.71,4,4,0,1,1,6.86-3.41A4,4,0,0,0,180.19,171.93Z"/><path class="cls-1" d="M227,183.93c4.68-4.68,5.17-15.79.48-20.48s-15.8-8.2-20.48-3.52-1.17,15.8,3.51,20.49S222.27,188.62,227,183.93Zm-9.22-5.64a1.16,1.16,0,1,1,1.15-1.16A1.16,1.16,0,0,1,217.74,178.29Zm1.45-8.36a4,4,0,0,1,2.38,7.2,3.37,3.37,0,0,0,.22-1.2,3.6,3.6,0,0,0-3.6-3.6l-.29,0a1.12,1.12,0,0,1,.11.47,1.16,1.16,0,0,1-1.16,1.16,1.15,1.15,0,0,1-1.06-.72,3.58,3.58,0,0,0-.6.69v0A4,4,0,0,1,219.19,169.93Z"/><path class="cls-1" d="M173.15,328.55v32h132v-32Zm27.33,24h-3.84l-6.81-8.72v8.72h-4.35V336.66h4.1l6.54,8.4v-8.4h4.36Zm45.73-8a8.17,8.17,0,0,1-.61,3.19,7.24,7.24,0,0,1-1.77,2.53A8.31,8.31,0,0,1,241,352a11.28,11.28,0,0,1-3.81.6h-6.06V336.66h6.15a11.67,11.67,0,0,1,3.78.58,8.14,8.14,0,0,1,2.81,1.62,7,7,0,0,1,1.75,2.49,8.17,8.17,0,0,1,.6,3.17Zm41.89,8L287,349.69h-6.15l-1.14,2.86h-4.6l6.74-16h4.24l6.76,16Z"/><polygon class="cls-1" points="282.11 346.26 285.68 346.26 283.91 341.77 282.11 346.26"/><path class="cls-1" d="M237.31,340.54h-1.79v8.1h1.79a4.69,4.69,0,0,0,3.2-1,3.71,3.71,0,0,0,1.21-3v-.05a3.76,3.76,0,0,0-1.21-3A4.7,4.7,0,0,0,237.31,340.54Z"/><path class="cls-1" d="M108.13,338.13a6,6,0,0,0-2.08-1.09,9.15,9.15,0,0,0-2.71-.38H96.51v15.89h4.4V348h2.2a9.8,9.8,0,0,0,2.73-.36,6.14,6.14,0,0,0,2.15-1.09,5,5,0,0,0,1.42-1.81,5.69,5.69,0,0,0,.51-2.48v0a5.7,5.7,0,0,0-.46-2.35A4.85,4.85,0,0,0,108.13,338.13Zm-2.59,4.34a1.84,1.84,0,0,1-.68,1.52,2.77,2.77,0,0,1-1.84.57h-2.11v-4.2H103a3,3,0,0,1,1.86.52,1.82,1.82,0,0,1,.68,1.55Z"/><path class="cls-1" d="M145.1,336.55l-6.74,16H143l1.13-2.86h6.15l1.14,2.86h4.72l-6.77-16Zm.3,9.71,1.79-4.49,1.77,4.49Z"/></svg>