<svg xmlns="http://www.w3.org/2000/svg" viewBox="0 0 400 400"><path d="M187.4 217.55A16 16 0 0 0 172 206a15.61 15.61 0 0 0-10.81 4.28A35.93 35.93 0 0 1 174 217a15.93 15.93 0 0 1 13.41.55zm-12.13.45c8.14 7.15 12.77 17 12.77 24 0 12.27-8.77 22.7-23.43 26.47a18.92 18.92 0 0 1-7 4.5c7.06-.23 14-2 19.3-5.8a21.1 21.1 0 0 1 1.2 17.86c8.9-4.3 19.12-14.66 21.9-23a35 35 0 0 0-8.65-23.51 16 16 0 0 0-16.1-20.52zM152 254c-2.2 0-8-2.2-8 0s5.8 8 8 8 8-5.8 8-8-5.75 0-8 0zm0 12.25c-.45 0-1.64-.45-1.64 0a2.94 2.94 0 0 0 1.64 1.64 2.94 2.94 0 0 0 1.64-1.64c.04-.45-1.15 0-1.64 0zM180.27 254c4.7-4.7 5.17-15.8.5-20.5s-15.8-8.2-20.5-3.5-1.17 15.8 3.52 20.48 11.8 8.17 16.48 3.52zm-9.7-5.65a1.16 1.16 0 1 1 1.16-1.15 1.15 1.15 0 0 1-1.16 1.12zM172 240a4 4 0 0 1 2.38 7.2 3.7 3.7 0 0 0 .22-1.2 3.6 3.6 0 0 0-3.6-3.6h-.3a1 1 0 0 1 .11.47 1.16 1.16 0 0 1-2.23.44 3.84 3.84 0 0 0-.59.68 4 4 0 0 1 4-3.99zm-42-23a35.76 35.76 0 0 1 12.81-6.72A15.61 15.61 0 0 0 132 206a16 16 0 0 0-15.37 11.58A15.93 15.93 0 0 1 130 217zm-14 25c0-6.92 4.62-16.8 12.76-24a16 16 0 0 0-16.11 20.45A35 35 0 0 0 104 262c2.8 8.37 13 18.73 21.9 23a21.13 21.13 0 0 1 1.21-17.86c5.34 3.82 12.24 5.57 19.3 5.8a18.88 18.88 0 0 1-7-4.5c-14.6-3.78-23.4-14.2-23.4-26.44zm7.32-8.52c-4.7 4.7-4.2 15.8.5 20.5s11.8 1.17 16.48-3.52 8.2-15.8 3.52-20.48-15.8-1.17-20.5 3.5zm10.53 14.84a1.16 1.16 0 1 1 1.16-1.15 1.15 1.15 0 0 1-1.16 1.15zM133 242a4.08 4.08 0 0 0-1.27.22 1.2 1.2 0 0 1 .23.67 1.14 1.14 0 0 1-2.09.64A4 4 0 0 0 129 246a4.05 4.05 0 0 0 .07.7A3.94 3.94 0 0 1 128 244a4 4 0 0 1 7.93-.71A4 4 0 0 0 133 242zm105.37-80.95a26.32 26.32 0 0 1-.75 14.1c-1-8.92-4.85-31-15.76-27.3 6.8-2.92 11.54 1.34 13.85 5.55.26-4.16-.76-8.4-3.22-10.88-4.7-4.68-15.8-4.68-20.5 0-4.34 4.34-1.65 14.17 2.5 19.32a54.83 54.83 0 0 0 .32 16.95 11.11 11.11 0 0 1-5.42 5.06 60.29 60.29 0 0 0 6.08-.5c.5 1.12 4.2 12 11.16 11.66 16.22-.7 22.4-29.48 13.08-38.7a22.3 22.3 0 0 1-1.34 4.76zm-.57-17.43a16 16 0 1 0-20.63-24.39c-2.15-.27-6.7-.23-6.7-.23 11.14 3.27 22.65 14.07 27.34 24.62zM204 163c-2.2 0-8-2.2-8 0s5.8 8 8 8 8-5.8 8-8-5.8 0-8 0zm0 12.08a2.94 2.94 0 0 0-1.64 1.64c0 .45 1.2 0 1.64 0s1.64.45 1.64 0a2.94 2.94 0 0 0-1.64-1.64zm-10.8 3.7a54.83 54.83 0 0 0 .32-16.95c4.14-5.15 6.83-15 2.5-19.32-4.7-4.68-15.8-4.68-20.5 0-2.46 2.47-3.48 6.72-3.22 10.88 2.3-4.2 7-8.47 13.85-5.55-10.9-3.64-14.76 18.4-15.76 27.3a26.32 26.32 0 0 1-.75-14.1 22.3 22.3 0 0 1-1.34-4.76c-9.33 9.23-3.14 38 13.08 38.7 6.95.3 10.67-10.54 11.16-11.66a60.29 60.29 0 0 0 6.08.5 11.11 11.11 0 0 1-5.42-5.06zm-23-35.16c4.7-10.55 16.2-21.35 27.34-24.62 0 0-4.56 0-6.7.23a16 16 0 1 0-20.63 24.39zM290.57 249.2a26.69 26.69 0 0 1-10.65 13.3c-5.1-2.15-12.18-4.86-18.43-5.4 1.4-1.53 2.47-3.15 2.47-4.1 0-2.2-5.8 0-8 0s-8-2.2-8 0c0 .84.84 2.2 2 3.55-6.45 1-13.42 3.9-18 5.9a26.75 26.75 0 0 1-10.58-13.26c-3.6 2.37-5.38 6.8-5.38 11.8 0 11 6.84 24 16.1 24 10.85 0 30.08-17.48 29.62-25.08 1.88 3.15.76 8.4-2.16 13.75.75.75 11.42 11.33 20.45 11.33 10.14 0 16-15.6 16-24 0-5-1.8-9.4-5.43-11.8zm-68.73-15.8c4.32-9.75 15.5-21 27.33-24.4h-6.6a16 16 0 1 0-20.72 24.35zm68.24 0a16.005 16.005 0 1 0-20.72-24.4h-6.6c11.83 3.36 23 14.64 27.33 24.4zm-62.6-.9c-4.7 4.7-4.2 15.8.48 20.5s11.8 1.17 16.5-3.5 8.2-15.8 3.5-20.5-15.8-1.17-20.48 3.5zm9.7 4a1.16 1.16 0 1 1 0 .04zM236 245a4 4 0 0 1-2.63-7 3.65 3.65 0 0 0-.15 1 3 3 0 0 0 0 .31 1.13 1.13 0 0 1 1.68 1 1.14 1.14 0 0 1-.82 1.09 3.74 3.74 0 0 0 5.86-.09A4 4 0 0 1 236 245zm48 8c4.7-4.7 5.17-15.8.5-20.5s-15.8-8.2-20.5-3.5-1.17 15.8 3.52 20.5 11.76 8.2 16.48 3.5zm-9.22-16.14a1.16 1.16 0 0 1 0 2.31 1.16 1.16 0 1 1 0-2.31zm-2.76 4a3.54 3.54 0 0 0 .88 1 1.14 1.14 0 0 1 1.08-.81 1.16 1.16 0 0 1 1.16 1.16 1.36 1.36 0 0 1-.07.35 3.52 3.52 0 0 0 3.45-3.51 3.45 3.45 0 0 0-.26-1.29A4 4 0 1 1 272 241v-.16z"/></svg>