<svg xmlns="http://www.w3.org/2000/svg" viewBox="0 0 400 400"><path d="M241.53 205.05a32.1 32.1 0 0 1-12.78 16c-6.12-2.6-14.62-5.84-22.12-6.5 1.68-1.84 3-3.78 3-4.92 0-2.65-6.95 0-9.6 0s-9.6-2.65-9.6 0c0 1 1 2.63 2.4 4.26-7.75 1.22-16.1 4.7-21.63 7.1a32.08 32.08 0 0 1-12.69-15.9c-4.3 2.83-6.47 8.14-6.47 14.15 0 13.16 8.2 28.8 19.3 28.8 13 0 36.1-21 35.54-30.1 2.25 3.8.9 10.07-2.6 16.5.9.9 13.7 13.6 24.54 13.6C241 248 248 229.3 248 219.2c0-5.97-2.12-11.3-6.47-14.15zm-82.47-18.98c5.18-11.7 18.6-25.24 32.8-29.27h-7.93a19.19 19.19 0 1 0-24.86 29.23zm81.88 0a19.19 19.19 0 1 0-24.86-29.23c-1.4-.05-7.93 0-7.93 0 14.2 4 27.6 17.52 32.8 29.23zM165.82 185c-5.63 5.62-5 19 .58 24.58s14.16 1.4 19.78-4.22 9.84-19 4.22-24.58-18.96-1.4-24.58 4.22zm11.65 4.84a1.39 1.39 0 1 1-1.39 1.39 1.38 1.38 0 0 1 1.39-1.37zM176 200a4.78 4.78 0 0 1-3.16-8.39 4.28 4.28 0 0 0-.18 1.19v.37a1.35 1.35 0 0 1 .63-.17 1.39 1.39 0 0 1 1.39 1.39 1.36 1.36 0 0 1-1 1.3 4.48 4.48 0 0 0 7-.11A4.79 4.79 0 0 1 176 200zm57.6 9.6c5.62-5.62 6.2-19 .58-24.58s-19-9.84-24.58-4.22-1.4 19 4.22 24.58 14.18 9.84 19.78 4.22zm-11.07-19.37a1.39 1.39 0 1 1-1.38 1.38 1.38 1.38 0 0 1 1.38-1.38zm-3.3 4.77a4.48 4.48 0 0 0 1.05 1.16 1.38 1.38 0 0 1 2.69.42 1.42 1.42 0 0 1-.08.42 4.2 4.2 0 0 0 3.84-5.76 4.8 4.8 0 1 1-7.52 3.95c0-.06.02-.12.02-.2z"/></svg>