<svg xmlns="http://www.w3.org/2000/svg" viewBox="0 0 400 400"><path d="M170.4 277.35v32h132v-32zm27.33 24h-3.84l-6.8-8.72v8.72h-4.35v-15.9h4.1l6.54 8.4v-8.4h4.36zm45.73-8a8.17 8.17 0 0 1-.61 3.19 7.24 7.24 0 0 1-1.77 2.53 8.47 8.47 0 0 1-2.84 1.67 11.28 11.28 0 0 1-3.81.6h-6.06v-15.88h6.15a11.41 11.41 0 0 1 3.78.58 8.14 8.14 0 0 1 2.81 1.62 7 7 0 0 1 1.75 2.49 8.12 8.12 0 0 1 .6 3.16zm41.9 8l-1.13-2.86h-6.15l-1.14 2.86h-4.6l6.74-16h4.24l6.76 16zm-6-6.3h3.57l-1.77-4.5-1.8 4.5zm-44.8-5.72h-1.8v8.1h1.8a4.69 4.69 0 0 0 3.2-1 3.73 3.73 0 0 0 1.21-3v-.05a3.76 3.76 0 0 0-1.21-3 4.65 4.65 0 0 0-3.2-1.05zm-129.18-2.4a5.81 5.81 0 0 0-2.08-1.09 9.15 9.15 0 0 0-2.71-.38h-6.83v15.9h4.4v-4.54h2.2a9.8 9.8 0 0 0 2.73-.36 6.32 6.32 0 0 0 2.15-1.09 5 5 0 0 0 1.42-1.81 5.72 5.72 0 0 0 .51-2.48V291a5.66 5.66 0 0 0-.46-2.35 4.76 4.76 0 0 0-1.33-1.72zm-2.6 4.34a1.85 1.85 0 0 1-.68 1.52 2.77 2.77 0 0 1-1.84.57h-2.1v-4.2h2.1a3 3 0 0 1 1.86.52 1.82 1.82 0 0 1 .68 1.55zm39.57-5.92l-6.74 16h4.6l1.13-2.86h6.15l1.14 2.86h4.72l-6.77-16zm.3 9.7l1.8-4.5 1.77 4.5zm36.48-101.85a16 16 0 0 0-15.37-11.58 15.61 15.61 0 0 0-10.81 4.28 35.76 35.76 0 0 1 12.81 6.72 16 16 0 0 1 13.37.58zm-12.12.46c8.14 7.15 12.77 17.05 12.77 24 0 12.27-8.77 22.7-23.43 26.48a19 19 0 0 1-7 4.49c7.06-.22 14-2 19.3-5.8a21.13 21.13 0 0 1 1.21 17.86c8.88-4.3 19.1-14.66 21.9-23a34.93 34.93 0 0 0-8.65-23.5 16 16 0 0 0-16.1-20.53zm-23.25 35.96c-2.2 0-8-2.2-8 0s5.8 8 8 8 8-5.8 8-8-5.75 0-8 0zm0 12.28c-.45 0-1.64-.45-1.64 0a2.94 2.94 0 0 0 1.64 1.64 2.94 2.94 0 0 0 1.64-1.64c0-.45-1.2 0-1.64 0zM172 229.62c4.7-4.7 5.17-15.8.5-20.5s-15.8-8.2-20.5-3.5-1.17 15.8 3.52 20.5 11.78 8.2 16.48 3.5zm-9.7-5.62a1.16 1.16 0 0 1 0-2.31 1.16 1.16 0 1 1 0 2.31zm1.46-8.35a4 4 0 0 1 2.38 7.2 3.7 3.7 0 0 0 .22-1.2 3.6 3.6 0 0 0-3.6-3.6h-.3a1 1 0 0 1 .11.47 1.16 1.16 0 0 1-2.23.44 3.84 3.84 0 0 0-.59.68 4 4 0 0 1 4-4.02zm-42-23.03a35.76 35.76 0 0 1 12.81-6.72 15.61 15.61 0 0 0-10.81-4.28 16 16 0 0 0-15.37 11.58 16 16 0 0 1 13.37-.58zm-14 25c0-6.9 4.62-16.8 12.76-24a16 16 0 0 0-16.11 20.46 34.93 34.93 0 0 0-8.65 23.5c2.8 8.37 13 18.73 21.9 23a21.13 21.13 0 0 1 1.21-17.86c5.34 3.82 12.24 5.58 19.3 5.8a19 19 0 0 1-7-4.49c-14.64-3.72-23.4-14.14-23.4-26.4zm7.25-8.5c-4.7 4.7-4.2 15.8.5 20.5s11.8 1.17 16.48-3.5 8.2-15.8 3.52-20.5-15.77-1.17-20.5 3.5zM125.56 224a1.16 1.16 0 0 1 0-2.31 1.16 1.16 0 1 1 0 2.31zm-.8-6.35a3.81 3.81 0 0 0-1.27.23 1.1 1.1 0 0 1 .23.66 1.15 1.15 0 0 1-1.15 1.16 1.13 1.13 0 0 1-.94-.52 4 4 0 0 0-.87 2.47 4.17 4.17 0 0 0 .07.71 4 4 0 1 1 6.86-3.42 4 4 0 0 0-2.93-1.32zm105.32-80.95a26.32 26.32 0 0 1-.75 14.1c-1-8.92-4.85-31-15.76-27.3 6.8-2.92 11.54 1.35 13.85 5.55.26-4.15-.76-8.4-3.22-10.87-4.7-4.7-15.8-4.7-20.5 0-4.33 4.33-1.65 14.16 2.5 19.32a54.77 54.77 0 0 0 .32 16.94 11.11 11.11 0 0 1-5.42 5.06c2.06-.08 4.1-.22 6.08-.5.5 1.1 4.2 11.95 11.16 11.65 16.22-.7 22.4-29.47 13.08-38.7a22.3 22.3 0 0 1-1.34 4.76zm-.56-17.42a16 16 0 1 0-20.63-24.39c-2.15-.28-6.7-.24-6.7-.24 11.14 3.27 22.65 14.07 27.34 24.63zm-33.82 19.37c-2.2 0-8-2.2-8 0s5.8 8 8 8 8-5.8 8-8-5.8 0-8 0zm0 12.08a2.94 2.94 0 0 0-1.64 1.64c0 .45 1.2 0 1.64 0s1.64.45 1.64 0a2.94 2.94 0 0 0-1.64-1.64zm-10.8 3.7a54.46 54.46 0 0 0 .32-16.94c4.14-5.16 6.83-15 2.5-19.32-4.7-4.7-15.8-4.7-20.48 0-2.47 2.47-3.5 6.72-3.23 10.87 2.3-4.2 7-8.47 13.85-5.55-10.9-3.64-14.76 18.4-15.76 27.3a26.32 26.32 0 0 1-.75-14.1 22.3 22.3 0 0 1-1.34-4.76c-9.33 9.24-3.14 38 13.08 38.7 6.95.3 10.67-10.54 11.16-11.65 2 .27 4 .4 6.08.5a11.11 11.11 0 0 1-5.42-5.06zm-23-35.15c4.7-10.56 16.2-21.36 27.34-24.63 0 0-4.56 0-6.7.24a16 16 0 1 0-20.63 24.39zm120.38 105.58a26.74 26.74 0 0 1-10.65 13.3c-5.1-2.16-12.18-4.87-18.43-5.4 1.4-1.53 2.47-3.15 2.47-4.1 0-2.2-5.8 0-8 0s-8-2.2-8 0c0 .84.84 2.2 2 3.55-6.45 1-13.42 3.9-18 5.9a26.77 26.77 0 0 1-10.58-13.25c-3.58 2.36-5.4 6.8-5.4 11.8 0 11 6.84 24 16.1 24 10.85 0 30.08-17.48 29.62-25.08 1.88 3.16.76 8.4-2.16 13.76.75.74 11.42 11.32 20.45 11.32 10.14 0 16-15.6 16-24-.04-4.97-1.8-9.4-5.42-11.8zM213.55 209c4.32-9.75 15.5-21 27.33-24.4h-6.6a16.009 16.009 0 1 0-20.73 24.4zm68.25 0a16 16 0 1 0-20.72-24.35c-1.16-.05-6.6 0-6.6 0 11.83 3.35 23 14.64 27.33 24.35zm-62.6-.83c-4.7 4.68-4.2 15.8.48 20.48s11.8 1.17 16.5-3.5 8.2-15.8 3.5-20.5-15.8-1.17-20.48 3.52zm9.7 4a1.16 1.16 0 1 1 0 .03zm-1.23 8.45a4 4 0 0 1-2.63-7 3.65 3.65 0 0 0-.15 1 3 3 0 0 0 0 .31 1.19 1.19 0 0 1 .53-.14 1.15 1.15 0 0 1 1.18 1.21 1.13 1.13 0 0 1-.82 1.08 3.74 3.74 0 0 0 5.86-.09 4 4 0 0 1-3.97 3.66zm48 8.03c4.7-4.68 5.17-15.8.5-20.48s-15.8-8.2-20.5-3.52-1.17 15.8 3.52 20.5 11.8 8.2 16.48 3.5zm-9.22-16.14a1.16 1.16 0 1 1-1.16 1.15 1.15 1.15 0 0 1 1.16-1.15zm-2.76 4a3.4 3.4 0 0 0 .88 1 1.15 1.15 0 0 1 2.24.35 1.36 1.36 0 0 1-.07.35 3.51 3.51 0 0 0 3.45-3.51 3.66 3.66 0 0 0-.25-1.29 4 4 0 1 1-6.27 3.29c0-.1.02-.15.02-.2z"/></svg>