<svg xmlns="http://www.w3.org/2000/svg" viewBox="0 0 400 400"><path d="M171.32 240.1v32h132v-32zm27.33 24h-3.84l-6.8-8.72v8.72h-4.35v-15.9h4.1l6.54 8.4v-8.4h4.36zm45.73-8a8.08 8.08 0 0 1-.61 3.18 7.28 7.28 0 0 1-1.77 2.54 8.29 8.29 0 0 1-2.84 1.66 11 11 0 0 1-3.81.61h-6.06v-15.9h6.15a11.41 11.41 0 0 1 3.78.58 7.83 7.83 0 0 1 2.78 1.62 7 7 0 0 1 1.75 2.49 8.12 8.12 0 0 1 .6 3.16zm41.9 8l-1.13-2.86H279l-1.14 2.86h-4.6l6.74-16h4.24l6.76 16zm-6-6.3h3.57l-1.77-4.5-1.8 4.5zm-44.8-5.72h-1.8v8.1h1.8a4.74 4.74 0 0 0 3.2-1 3.75 3.75 0 0 0 1.21-3 3.79 3.79 0 0 0-1.21-3 4.69 4.69 0 0 0-3.2-1.1zm-129.18-2.42a6.14 6.14 0 0 0-2.08-1.09 9.16 9.16 0 0 0-2.71-.37h-6.83v15.9h4.4v-4.54h2.2a9.44 9.44 0 0 0 2.73-.37 6 6 0 0 0 2.15-1.09 4.93 4.93 0 0 0 1.42-1.8 5.77 5.77 0 0 0 .51-2.49 5.66 5.66 0 0 0-.46-2.35 4.88 4.88 0 0 0-1.33-1.79zm-2.6 4.34a1.87 1.87 0 0 1-.68 1.52 2.77 2.77 0 0 1-1.84.57h-2.1v-4.2h2.1a3 3 0 0 1 1.86.52 1.8 1.8 0 0 1 .68 1.54zm39.57-5.9l-6.74 16h4.6l1.13-2.86h6.15l1.14 2.86h4.72l-6.77-16zm.3 9.7l1.8-4.5 1.77 4.5zm97.96-76.8a32.1 32.1 0 0 1-12.78 16c-6.12-2.6-14.62-5.84-22.12-6.5 1.68-1.83 3-3.77 3-4.92 0-2.65-6.95 0-9.6 0s-9.6-2.65-9.6 0c0 1 1 2.64 2.4 4.26-7.75 1.23-16.1 4.7-21.63 7.1A32.08 32.08 0 0 1 158.47 181c-4.3 2.83-6.47 8.15-6.47 14.15 0 13.16 8.2 28.8 19.3 28.8 13 0 36.1-21 35.54-30.1 2.25 3.8.9 10.08-2.6 16.5.9.9 13.7 13.6 24.54 13.6 12.17 0 19.22-18.7 19.2-28.8 0-6-2.12-11.32-6.47-14.15zm-82.47-19c5.18-11.7 18.6-25.23 32.8-29.27h-7.93A19.204 19.204 0 1 0 159.06 162zm81.88 0a19.19 19.19 0 1 0-24.86-29.22c-1.4-.06-7.93 0-7.93 0 14.2 3.97 27.6 17.5 32.8 29.22zm-75.12-1.07c-5.63 5.63-5 19 .58 24.58s14.16 1.4 19.78-4.2 9.84-19 4.22-24.6-18.96-1.4-24.58 4.22zm11.65 4.84a1.39 1.39 0 1 1-1.39 1.39 1.39 1.39 0 0 1 1.39-1.39zM176 175.9a4.78 4.78 0 0 1-3.16-8.38 4.21 4.21 0 0 0-.18 1.18v.38a1.35 1.35 0 0 1 .63-.17 1.38 1.38 0 0 1 1.39 1.38 1.36 1.36 0 0 1-1 1.31 4.49 4.49 0 0 0 7-.11 4.78 4.78 0 0 1-4.68 4.41zm57.6 9.6c5.62-5.62 6.2-18.95.58-24.58s-19-9.84-24.58-4.22-1.4 19 4.22 24.6 14.18 9.84 19.78 4.2zm-11.07-19.37a1.39 1.39 0 1 1-1.38 1.39 1.39 1.39 0 0 1 1.38-1.39zm-3.3 4.78a4.52 4.52 0 0 0 1.05 1.17 1.37 1.37 0 0 1 2.69.41 1.56 1.56 0 0 1-.08.43 4.21 4.21 0 0 0 3.84-5.77 4.8 4.8 0 1 1-7.52 4c0-.1.02-.16.02-.24z"/></svg>