<svg xmlns="http://www.w3.org/2000/svg" viewBox="0 0 400 400"><path d="M173.15 328.55v32h132v-32zm27.33 24h-3.84l-6.8-8.72v8.72h-4.35v-15.9h4.1l6.54 8.4v-8.4h4.36zm45.73-8a8.17 8.17 0 0 1-.61 3.19 7.24 7.24 0 0 1-1.77 2.53A8.31 8.31 0 0 1 241 352a11.28 11.28 0 0 1-3.81.6h-6.06v-15.94h6.15a11.63 11.63 0 0 1 3.78.58 8.14 8.14 0 0 1 2.81 1.62 7 7 0 0 1 1.75 2.49 8.17 8.17 0 0 1 .6 3.17zm41.9 8l-1.1-2.86h-6.15l-1.14 2.86h-4.6l6.74-16h4.24l6.76 16zm-6-6.3h3.57l-1.77-4.5-1.8 4.5zm-44.8-5.72h-1.8v8.1h1.8a4.69 4.69 0 0 0 3.2-1 3.71 3.71 0 0 0 1.21-3v-.05a3.76 3.76 0 0 0-1.21-3 4.7 4.7 0 0 0-3.2-1.05zm-129.17-2.4a6 6 0 0 0-2.08-1.09 9.15 9.15 0 0 0-2.71-.38H96.5v15.9h4.4V348h2.2a9.8 9.8 0 0 0 2.73-.36 6.14 6.14 0 0 0 2.15-1.09 5 5 0 0 0 1.42-1.81 5.69 5.69 0 0 0 .51-2.48 5.7 5.7 0 0 0-.46-2.35 4.76 4.76 0 0 0-1.33-1.78zm-2.6 4.34a1.84 1.84 0 0 1-.68 1.52 2.77 2.77 0 0 1-1.84.57h-2.1v-4.2h2.1a3 3 0 0 1 1.86.52 1.82 1.82 0 0 1 .68 1.55zm39.57-5.92l-6.74 16H143l1.13-2.86h6.15l1.14 2.86h4.72l-6.77-16zm.3 9.7l1.8-4.5 1.77 4.5zm89.16-198.73a16 16 0 0 0-15.37-11.59 15.65 15.65 0 0 0-10.81 4.28 35.76 35.76 0 0 1 12.81 6.72 16 16 0 0 1 13.37.59zm-12.13.48c8.14 7.15 12.76 17.05 12.76 24 0 12.28-8.77 22.7-23.43 26.48a18.88 18.88 0 0 1-7 4.5c7.05-.23 14-2 19.3-5.8A21.12 21.12 0 0 1 225.3 215c8.9-4.3 19.1-14.67 21.9-23a34.93 34.93 0 0 0-8.65-23.5 16 16 0 0 0-16.11-20.5zm-15.23 35.93c0-2.2-5.8 0-8 0s-8-2.2-8 0 5.8 8 8 8 8-5.8 8-8zm-8 12.3c-.45 0-1.64-.46-1.64 0a2.92 2.92 0 0 0 1.64 1.63 2.92 2.92 0 0 0 1.64-1.63c0-.46-1.2 0-1.64 0zm11.74-15.8c4.7 4.7 11.8 8.2 16.48 3.5s5.18-15.8.5-20.48-15.8-8.2-20.5-3.52-1.17 15.8 3.52 20.5zm6.8-2.13a1.16 1.16 0 1 1 1.15-1.16 1.16 1.16 0 0 1-1.15 1.16zm1.45-8.36a4 4 0 0 1 2.38 7.2 3.37 3.37 0 0 0 .22-1.2 3.6 3.6 0 0 0-3.6-3.6h-.3a1.12 1.12 0 0 1 .11.47 1.16 1.16 0 0 1-1.16 1.16 1.15 1.15 0 0 1-1.06-.72 3.58 3.58 0 0 0-.6.69 4 4 0 0 1 4-4zm-40-34a16 16 0 0 0-15.37 11.59 16 16 0 0 1 13.37-.59 35.93 35.93 0 0 1 12.81-6.72 15.65 15.65 0 0 0-10.81-4.28zM173.1 215a21.09 21.09 0 0 1 1.2-17.86c5.34 3.82 12.24 5.57 19.3 5.8a18.92 18.92 0 0 1-7-4.5c-14.66-3.78-23.43-14.2-23.43-26.48 0-6.9 4.63-16.8 12.77-24a16 16 0 0 0-16.12 20.46 34.93 34.93 0 0 0-8.65 23.5C154 200.3 164.2 210.67 173.1 215zm-2.1-31.07c4.7 4.7 11.8 1.18 16.48-3.5s8.2-15.8 3.52-20.5-15.8-1.17-20.5 3.52-4.24 15.8.5 20.48zm10-5.64a1.16 1.16 0 1 1 1.16-1.16 1.16 1.16 0 0 1-1.16 1.16zm-1.8-8.36a4 4 0 0 1 3.93 3.3 4 4 0 0 0-2.93-1.3 3.81 3.81 0 0 0-1.27.23 1.11 1.11 0 0 1 .24.66A1.16 1.16 0 0 1 178 174a1.14 1.14 0 0 1-.94-.51 4 4 0 0 0-.87 2.46 4.07 4.07 0 0 0 .07.71 4 4 0 0 1 2.93-6.71zm29.8-66.7a11.11 11.11 0 0 1-5.42 5.06 60.29 60.29 0 0 0 6.08-.5c.5 1.12 4.2 12 11.17 11.66 16.22-.7 22.4-29.48 13.07-38.7a22.3 22.3 0 0 1-1.34 4.76 26.4 26.4 0 0 1-.74 14.1c-1-8.92-4.86-30.95-15.77-27.3 6.8-2.92 11.55 1.34 13.86 5.55.26-4.16-.76-8.4-3.23-10.87-4.7-4.7-15.8-4.7-20.5 0-4.33 4.33-1.65 14.16 2.5 19.3a54.83 54.83 0 0 0 .32 16.95zm23-35.16a16 16 0 1 0-20.62-24.39c-2.16-.27-6.72-.23-6.72-.23C215.8 46.72 227.3 57.52 232 68.07zm-41.8 19.38c0 2.2 5.8 8 8 8s8-5.8 8-8-5.8 0-8 0-8-2.2-8 0zm8 13.72c.45 0 1.64.45 1.64 0a2.94 2.94 0 0 0-1.64-1.64 2.94 2.94 0 0 0-1.64 1.64c0 .45 1.2 0 1.64 0zm-22.64 18.28c6.95.3 10.67-10.54 11.16-11.66a60.29 60.29 0 0 0 6.08.5 11.11 11.11 0 0 1-5.42-5.06 54.52 54.52 0 0 0 .32-17c4.14-5.15 6.83-15 2.5-19.3-4.68-4.7-15.8-4.7-20.48 0-2.47 2.46-3.5 6.7-3.23 10.87 2.3-4.2 7-8.47 13.85-5.55-10.9-3.64-14.76 18.4-15.76 27.3a26.3 26.3 0 0 1-.74-14.1 21.75 21.75 0 0 1-1.35-4.76c-9.33 9.3-3.14 38.07 13.08 38.76zM164.4 68.07c4.7-10.55 16.2-21.35 27.34-24.62 0 0-4.57 0-6.72.23a16 16 0 1 0-20.62 24.39zm40 218.3c1.88 3.15.77 8.4-2.15 13.75.75.75 11.42 11.33 20.45 11.33 10.14 0 16-15.6 16-24 0-5-1.77-9.4-5.4-11.8A26.74 26.74 0 0 1 222.67 289c-5.1-2.16-12.2-4.87-18.44-5.4 1.4-1.53 2.48-3.15 2.48-4.1 0-2.2-5.8 0-8 0s-8-2.2-8 0c0 .84.83 2.2 2 3.55-6.46 1-13.43 3.9-18 5.9a26.74 26.74 0 0 1-10.57-13.25c-3.58 2.36-5.4 6.78-5.4 11.8 0 11 6.83 24 16.1 24 10.8-.04 30.03-17.5 29.57-25.12zm-12.48-50.92h-6.6a16 16 0 1 0-20.72 24.35c4.32-9.7 15.5-21 27.33-24.35zm46.78 12a16 16 0 0 0-26.6-12c-1.16-.05-6.6 0-6.6 0 11.83 3.36 23 14.64 27.33 24.4a16 16 0 0 0 5.88-12.39zm-51.5 28.5c4.7-4.7 8.2-15.8 3.52-20.5s-15.8-1.17-20.5 3.52-4.2 15.8.5 20.48 11.8 1.17 16.48-3.5zM179.93 263a1.16 1.16 0 1 1-1.15 1.16 1.16 1.16 0 0 1 1.15-1.16zm-3.86 1.46a4.08 4.08 0 0 0-.14 1 3 3 0 0 0 0 .31 1.13 1.13 0 0 1 1.68 1 1.14 1.14 0 0 1-.82 1.09 3.75 3.75 0 0 0 2.89 1.37 3.79 3.79 0 0 0 3-1.46 4 4 0 1 1-6.61-3.31zm30.63-9c-4.7 4.7-1.17 15.8 3.5 20.5s11.8 8.2 16.5 3.5 5.17-15.8.48-20.48-15.8-8.2-20.48-3.52zm10.77 7.86a1.16 1.16 0 1 1-1.15 1.15 1.15 1.15 0 0 1 1.15-1.15zm-2.76 4a3.71 3.71 0 0 0 .88 1 1.14 1.14 0 0 1 1.09-.81 1.16 1.16 0 0 1 1.16 1.16 1.05 1.05 0 0 1-.08.35 3.52 3.52 0 0 0 3.45-3.51 3.45 3.45 0 0 0-.25-1.29 4 4 0 1 1-6.26 3.29c0-.1.01-.15.01-.2z"/></svg>