<svg xmlns="http://www.w3.org/2000/svg" viewBox="0 0 400 400"><path d="M234.56 171.92a16 16 0 0 0-15.37-11.58 15.61 15.61 0 0 0-10.81 4.28 35.76 35.76 0 0 1 12.81 6.72 15.93 15.93 0 0 1 13.37.58zm-12.13.46c8.14 7.15 12.76 17 12.76 24 0 12.27-8.77 22.7-23.43 26.47a18.88 18.88 0 0 1-7 4.5c7.05-.23 14-2 19.3-5.8a21.13 21.13 0 0 1 1.21 17.86c8.9-4.3 19.1-14.66 21.9-23a35 35 0 0 0-8.65-23.51 16 16 0 0 0-16.08-20.52zm-23.23 35.96c-2.2 0-8-2.2-8 0s5.8 8 8 8 8-5.8 8-8-5.8 0-8 0zm0 12.28c-.45 0-1.64-.45-1.64 0a2.94 2.94 0 0 0 1.64 1.64 2.94 2.94 0 0 0 1.64-1.64c0-.45-1.2 0-1.64 0zm28.22-12.28c4.7-4.7 5.18-15.8.5-20.5s-15.8-8.2-20.5-3.5-1.17 15.8 3.52 20.48 11.8 8.18 16.48 3.52zm-9.68-5.65a1.16 1.16 0 1 1 1.15-1.15 1.16 1.16 0 0 1-1.15 1.15zm1.45-8.35a4 4 0 0 1 2.38 7.2 3.45 3.45 0 0 0 .22-1.2 3.6 3.6 0 0 0-3.6-3.6h-.3a1 1 0 0 1 .11.47 1.15 1.15 0 0 1-1.16 1.15 1.14 1.14 0 0 1-1.06-.71 3.53 3.53 0 0 0-.6.68 4 4 0 0 1 4-3.99zm-42-23a35.93 35.93 0 0 1 12.81-6.72 15.61 15.61 0 0 0-10.81-4.28 16 16 0 0 0-15.37 11.58 15.93 15.93 0 0 1 13.37-.58zm-14 25c0-6.92 4.63-16.8 12.77-24a16 16 0 0 0-16.12 20.45 35 35 0 0 0-8.65 23.51c2.8 8.37 13 18.73 21.9 23a21.1 21.1 0 0 1 1.2-17.86c5.34 3.82 12.24 5.57 19.3 5.8a18.92 18.92 0 0 1-7-4.5c-14.6-3.74-23.4-14.13-23.4-26.4zm7.27-8.5c-4.68 4.7-4.2 15.8.5 20.5s11.8 1.17 16.48-3.52 8.2-15.8 3.52-20.48-15.8-1.17-20.5 3.5zM181 202.7a1.16 1.16 0 1 1 1.16-1.15 1.16 1.16 0 0 1-1.16 1.15zm-.8-6.35a4.08 4.08 0 0 0-1.27.22 1.12 1.12 0 0 1 .24.67 1.15 1.15 0 0 1-1.16 1.15 1.12 1.12 0 0 1-.93-.51 4 4 0 0 0-.88 2.47 4.05 4.05 0 0 0 .07.7 4 4 0 1 1 6.86-3.41 4 4 0 0 0-2.93-1.29zm52.36-86.45a26.44 26.44 0 0 1-.74 14.11c-1-8.93-4.86-30.95-15.77-27.32 6.8-2.92 11.55 1.35 13.86 5.55.26-4.15-.76-8.4-3.23-10.87-4.7-4.7-15.8-4.7-20.5 0-4.33 4.33-1.65 14.16 2.5 19.32a54.77 54.77 0 0 0 .32 16.94 11.11 11.11 0 0 1-5.42 5.06 60.3 60.3 0 0 0 6.08-.49c.5 1.1 4.2 12 11.17 11.65 16.22-.7 22.4-29.47 13.07-38.7a22.3 22.3 0 0 1-1.34 4.76zM232 92.48a16 16 0 1 0-20.62-24.39c-2.16-.28-6.72-.24-6.72-.24C215.8 71.12 227.3 81.92 232 92.48zm-33.8 19.37c-2.2 0-8-2.2-8 0s5.8 8 8 8 8-5.8 8-8-5.8 0-8 0zm0 12.08a2.94 2.94 0 0 0-1.64 1.64c0 .45 1.2 0 1.64 0s1.64.45 1.64 0a2.94 2.94 0 0 0-1.64-1.64zm-10.82 3.7a54.46 54.46 0 0 0 .32-16.94c4.14-5.16 6.83-15 2.5-19.32-4.68-4.7-15.8-4.7-20.48 0-2.47 2.47-3.5 6.72-3.23 10.87 2.3-4.2 7-8.47 13.85-5.55-10.9-3.63-14.76 18.4-15.76 27.32a26.33 26.33 0 0 1-.74-14.11 21.75 21.75 0 0 1-1.35-4.76c-9.33 9.24-3.14 38 13.08 38.7 6.95.3 10.67-10.54 11.16-11.65a60.3 60.3 0 0 0 6.08.49 11.11 11.11 0 0 1-5.42-5.06zM164.4 92.48c4.7-10.56 16.2-21.36 27.34-24.63 0 0-4.57 0-6.72.24a16 16 0 1 0-20.62 24.39zm68.92 207.58a26.74 26.74 0 0 1-10.65 13.3c-5.1-2.16-12.2-4.87-18.44-5.4 1.4-1.53 2.48-3.15 2.48-4.1 0-2.2-5.8 0-8 0s-8-2.2-8 0c0 .84.83 2.2 2 3.55-6.46 1-13.43 3.9-18 5.9a26.74 26.74 0 0 1-10.57-13.25c-3.58 2.36-5.4 6.8-5.4 11.8 0 11 6.83 24 16.1 24 10.84 0 30.07-17.48 29.6-25.08 1.88 3.16.77 8.4-2.15 13.76.75.74 11.42 11.32 20.45 11.32 10.14 0 16-15.6 16-24-.05-4.97-1.8-9.4-5.43-11.8zm-68.72-15.82c4.32-9.75 15.5-21 27.33-24.4h-6.6a16 16 0 1 0-20.72 24.35zm68.23 0a16 16 0 1 0-20.72-24.35c-1.16-.05-6.6 0-6.6 0 11.83 3.32 23 14.6 27.33 24.35zm-62.6-.87c-4.68 4.68-4.2 15.8.5 20.48s11.8 1.17 16.48-3.5 8.2-15.8 3.52-20.5-15.8-1.17-20.5 3.52zm9.7 4a1.16 1.16 0 1 1 0 2.31 1.16 1.16 0 0 1 0-2.31zm-1.22 8.45a4 4 0 0 1-2.64-7 4.08 4.08 0 0 0-.14 1 3 3 0 0 0 0 .31 1.14 1.14 0 1 1 .86 2.11 3.75 3.75 0 0 0 5.86-.1 4 4 0 0 1-3.94 3.71zm48 8.03c4.68-4.68 5.17-15.8.48-20.48s-15.8-8.2-20.48-3.52-1.17 15.8 3.5 20.5 11.78 8.2 16.5 3.5zm-9.23-16.14a1.16 1.16 0 1 1-1.15 1.15 1.16 1.16 0 0 1 1.15-1.15zm-2.76 4a3.56 3.56 0 0 0 .88 1 1.15 1.15 0 0 1 2.25.35 1.05 1.05 0 0 1-.08.35 3.51 3.51 0 0 0 3.45-3.51 3.45 3.45 0 0 0-.25-1.29 4 4 0 1 1-6.26 3.29c0-.1.01-.15.01-.2z"/></svg>