<svg xmlns="http://www.w3.org/2000/svg" viewBox="0 0 400 400"><path d="M171.32 264.46h132v-32h-132zm108.67-24h4.24l6.76 16h-4.72l-1.13-2.86H279l-1.14 2.86h-4.6zm-50.7.1h6.15a11.41 11.41 0 0 1 3.78.58 8 8 0 0 1 2.81 1.62 7 7 0 0 1 1.75 2.49 8.12 8.12 0 0 1 .6 3.16v.05a8.17 8.17 0 0 1-.61 3.19 7.24 7.24 0 0 1-1.77 2.53 8.29 8.29 0 0 1-2.84 1.66 11 11 0 0 1-3.81.61h-6.06zm-45.64 0h4.1l6.54 8.4v-8.4h4.36v15.9h-3.84l-6.8-8.72v8.72h-4.35zm98.43 5.12l-1.8 4.5h3.57l-1.77-4.5zm-43.4 5.82a3.75 3.75 0 0 0 1.21-3 3.75 3.75 0 0 0-1.21-3 4.65 4.65 0 0 0-3.2-1.06h-1.8v8.1h1.8a4.74 4.74 0 0 0 3.2-1.04zM106.3 242a6.14 6.14 0 0 0-2.08-1.09 9.16 9.16 0 0 0-2.71-.37h-6.83v15.9h4.4v-4.54h2.2a9.44 9.44 0 0 0 2.73-.37 6 6 0 0 0 2.15-1.09 4.93 4.93 0 0 0 1.42-1.8 5.75 5.75 0 0 0 .51-2.48v-.05a5.66 5.66 0 0 0-.46-2.35 4.88 4.88 0 0 0-1.33-1.75zm-2.6 4.35a1.87 1.87 0 0 1-.68 1.52 2.77 2.77 0 0 1-1.84.57h-2.1v-4.2h2.1a3 3 0 0 1 1.86.52 1.81 1.81 0 0 1 .68 1.55zm39.57-5.9l-6.74 16h4.6l1.13-2.86h6.15l1.14 2.86h4.72l-6.77-16zm.3 9.7l1.8-4.5 1.77 4.5zm90.8-103.03A16 16 0 0 0 219 135.54a15.65 15.65 0 0 0-10.81 4.28 35.76 35.76 0 0 1 12.81 6.72 16 16 0 0 1 13.37.59zm-12.13.45c8.14 7.15 12.76 17 12.76 24 0 12.28-8.77 22.7-23.43 26.48a18.92 18.92 0 0 1-7 4.5c7.06-.23 14-2 19.3-5.8a21.12 21.12 0 0 1 1.21 17.86c8.88-4.3 19.1-14.67 21.9-23a34.93 34.93 0 0 0-8.65-23.5 16 16 0 0 0-16.09-20.54zM191 183.54c0 2.2 5.8 8 8 8s8-5.8 8-8-5.8 0-8 0-8-2.2-8 0zm8 12.3c-.45 0-1.64-.46-1.64 0a2.92 2.92 0 0 0 1.64 1.63 2.92 2.92 0 0 0 1.64-1.63c0-.46-1.2 0-1.64 0zm28.23-12.3c4.7-4.68 5.17-15.8.5-20.48s-15.8-8.2-20.5-3.52-1.17 15.8 3.52 20.5 11.8 8.2 16.48 3.5zm-9.7-5.64a1.16 1.16 0 1 1 1.16-1.16 1.16 1.16 0 0 1-1.16 1.16zm1.46-8.36a4 4 0 0 1 2.38 7.2 3.57 3.57 0 0 0-3.38-4.8h-.3a1.12 1.12 0 0 1 .11.47 1.16 1.16 0 0 1-2.23.44 3.58 3.58 0 0 0-.59.69 4 4 0 0 1 4-4zm-42-23a35.76 35.76 0 0 1 12.81-6.72 15.65 15.65 0 0 0-10.81-4.28 16 16 0 0 0-15.37 11.59 16 16 0 0 1 13.37-.59zm-2.9 50.18c5.34 3.82 12.24 5.57 19.3 5.8a18.92 18.92 0 0 1-7-4.5c-14.66-3.78-23.43-14.2-23.43-26.48 0-6.9 4.62-16.8 12.76-24A16 16 0 0 0 159.65 168a34.93 34.93 0 0 0-8.65 23.5c2.8 8.37 13 18.74 21.9 23a21.12 21.12 0 0 1 1.21-17.78zm-3.82-33.66c-4.68 4.68-4.2 15.8.5 20.48s11.8 1.18 16.48-3.5 8.2-15.8 3.52-20.5-15.77-1.17-20.5 3.52zm10.53 14.84a1.16 1.16 0 1 1 1.16-1.16 1.15 1.15 0 0 1-1.16 1.16zm-.8-6.36a3.81 3.81 0 0 0-1.27.23 1.1 1.1 0 0 1 .23.66 1.14 1.14 0 0 1-2.09.65 3.94 3.94 0 0 0-.87 2.46 4.07 4.07 0 0 0 .07.71 4 4 0 1 1 6.86-3.41 4 4 0 0 0-2.93-1.3zm-50.57 10.06a26.33 26.33 0 0 1-.74 14.11c-1-8.93-4.85-30.95-15.76-27.32 6.8-2.92 11.54 1.35 13.85 5.55.26-4.15-.76-8.4-3.23-10.87-4.68-4.7-15.8-4.7-20.48 0-4.34 4.33-1.65 14.16 2.5 19.32a54.45 54.45 0 0 0 .32 16.94 11.11 11.11 0 0 1-5.42 5.06 60.3 60.3 0 0 0 6.08-.49c.5 1.1 4.2 12 11.16 11.65 16.22-.7 22.4-29.47 13.08-38.7a21.75 21.75 0 0 1-1.35 4.76zm-.54-17.43a16 16 0 1 0-20.63-24.39c-2.15-.28-6.7-.24-6.7-.24 11.14 3.27 22.65 14.08 27.34 24.63zm-25.82 19.37c0-2.2-5.8 0-8 0s-8-2.2-8 0 5.8 8 8 8 8-5.8 8-8zm-6.36 13.72a2.94 2.94 0 0 0-1.64-1.64 2.94 2.94 0 0 0-1.64 1.64c0 .45 1.2 0 1.64 0s1.64.45 1.64 0zm-12.45 2.06a54.76 54.76 0 0 0 .32-16.94c4.14-5.16 6.82-15 2.5-19.32-4.7-4.7-15.8-4.7-20.5 0-2.46 2.47-3.48 6.72-3.23 10.87 2.32-4.2 7-8.47 13.86-5.55-10.9-3.63-14.76 18.4-15.77 27.32a26.44 26.44 0 0 1-.74-14.11 22.3 22.3 0 0 1-1.34-4.76c-9.33 9.24-3.14 38 13.08 38.7 7 .3 10.66-10.54 11.16-11.65a60.3 60.3 0 0 0 6.08.49 11.11 11.11 0 0 1-5.42-5.06zm-23-35.15c4.7-10.55 16.2-21.36 27.34-24.63 0 0-4.56 0-6.7.24a16 16 0 1 0-20.63 24.39zm276.33 15.58a26.74 26.74 0 0 1-10.61 13.3c-5.1-2.16-12.2-4.87-18.44-5.4 1.4-1.53 2.48-3.14 2.48-4.1 0-2.2-5.8 0-8 0s-8-2.2-8 0c0 .84.84 2.2 2 3.55-6.46 1-13.43 3.9-18 5.9a26.72 26.72 0 0 1-10.58-13.25c-3.58 2.36-5.4 6.8-5.4 11.8 0 11 6.84 24 16.1 24 10.85 0 30.08-17.48 29.62-25.08 1.88 3.16.76 8.4-2.16 13.76.75.74 11.42 11.32 20.45 11.32 10.14 0 16-15.6 16-24-.07-4.97-1.84-9.4-5.46-11.8zm-68.72-15.82c4.32-9.75 15.5-21 27.33-24.4h-6.6a16 16 0 1 0-20.72 24.35zm68.24 0a16 16 0 1 0-20.72-24.35c-1.16-.05-6.6 0-6.6 0 11.83 3.33 23 14.6 27.33 24.35zm-62.62-.87c-4.68 4.7-4.2 15.8.5 20.48s11.8 1.18 16.5-3.5 8.2-15.8 3.5-20.5-15.8-1.17-20.5 3.52zm9.7 4a1.16 1.16 0 1 1 0 .03zm-1.22 8.48a4 4 0 0 1-4-4 3.93 3.93 0 0 1 1.37-3 3.52 3.52 0 0 0-.15 1 3 3 0 0 0 0 .31 1.14 1.14 0 1 1 .86 2.11 3.73 3.73 0 0 0 5.86-.1 4 4 0 0 1-3.94 3.68zm48.02 8c4.7-4.68 5.17-15.8.5-20.48s-15.8-8.2-20.5-3.52-1.17 15.8 3.5 20.5 11.8 8.2 16.5 3.5zm-9.22-16.14a1.16 1.16 0 1 1-1.16 1.16 1.15 1.15 0 0 1 1.16-1.16zm-2.76 4a3.4 3.4 0 0 0 .88 1 1.14 1.14 0 0 1 1.08-.81 1.16 1.16 0 0 1 1.16 1.16 1.28 1.28 0 0 1-.07.35 3.48 3.48 0 0 0 3.19-4.8 4 4 0 1 1-6.26 3.29 1 1 0 0 1 0-.21z"/></svg>