<svg id="Layer_1" data-name="Layer 1" xmlns="http://www.w3.org/2000/svg" viewBox="0 0 400 400"><defs><style>.cls-1{fill:#494866;}</style></defs><title>pandas_1</title><path class="cls-1" d="M238,161.94a44.14,44.14,0,0,1,2,9.51,13.37,13.37,0,0,1-.6,3.72c-1.52-8.92-6.1-27.72-15.4-27.72a6,6,0,0,0-2.94.77c.47-1,2.44-1.69,3.39-1.69,5.42,0,8.49,4.46,11,9.22.89-4.83,0-10.3-2.95-13.24-4.69-4.68-15.8-4.68-20.49,0-4.34,4.34-1.65,14.17,2.49,19.32a54.83,54.83,0,0,0,.32,16.95,11,11,0,0,1-5,4.88,45.09,45.09,0,0,0,5.47-.83c.56,1.3,1.15,2.54,1.78,3.7a17.78,17.78,0,0,0,3,4.92,10.41,10.41,0,0,0,4.73,3.22,6,6,0,0,0,1.9.33h.16a8.19,8.19,0,0,0,1.21-.07c14.71-1.66,20.8-29.63,11.71-38.63A21.87,21.87,0,0,1,238,161.94Z"/><path class="cls-1" d="M290.57,249.2a26.65,26.65,0,0,1-10.65,13.3c-5.1-2.15-12.18-4.86-18.43-5.4,1.4-1.53,2.47-3.15,2.47-4.1,0-2.21-5.79,0-8,0s-8-2.21-8,0c0,.84.84,2.19,2,3.55-6.45,1-13.42,3.91-18,5.91a26.75,26.75,0,0,1-10.58-13.26C217.77,251.57,216,256,216,261c0,11,6.09,21.92,13.78,23.73l.34.07c.21.05.42.08.63.11l.29,0c.32,0,.64.05,1,.05h.09c.3,0,.62,0,.94-.05l.2,0,.41-.05c11.13-1.52,29.14-18.31,28-25.35,2.25,2.82.46,7.83-3.53,12.66a50.7,50.7,0,0,0,3.78,3.67,52.8,52.8,0,0,0,4.66,3.66C271,282.73,275.9,285,280,285a7.38,7.38,0,0,0,.82,0,8,8,0,0,0,4.63-1.71C291.5,279.31,296,269.41,296,261,296,256,294.19,251.59,290.57,249.2Z"/><path class="cls-1" d="M290.39,233.12a16,16,0,1,0-21-24.08c-.45,0-.92,0-1.4,0h-3.83C277.52,212.33,286.86,223.43,290.39,233.12Z"/><path class="cls-1" d="M221.53,233.12c3.54-9.69,12.87-20.79,26.27-24.12H244c-.48,0-.94,0-1.4,0a16,16,0,1,0-21,24.08Z"/><path class="cls-1" d="M227.48,232.51c-4.69,4.69-4.2,15.8.48,20.49s11.8,1.17,16.49-3.51,8.2-15.8,3.51-20.49S232.16,227.83,227.48,232.51Zm9.7,4a1.16,1.16,0,1,1-1.15,1.16A1.16,1.16,0,0,1,237.18,236.55ZM236,245a4,4,0,0,1-2.63-7,3.65,3.65,0,0,0-.15,1,3,3,0,0,0,0,.31,1.13,1.13,0,0,1,1.68,1,1.14,1.14,0,0,1-.82,1.09,3.74,3.74,0,0,0,5.86-.09A4,4,0,0,1,236,245Z"/><path class="cls-1" d="M284,253c4.69-4.69,5.17-15.8.49-20.49s-15.8-8.2-20.49-3.51-1.17,15.8,3.52,20.49S279.28,257.69,284,253Zm-9.22-16.14a1.16,1.16,0,0,1,0,2.31,1.16,1.16,0,1,1,0-2.31Zm-2.76,4a3.54,3.54,0,0,0,.88,1,1.14,1.14,0,0,1,1.08-.81,1.16,1.16,0,0,1,1.16,1.16,1.36,1.36,0,0,1-.07.35,3.52,3.52,0,0,0,3.45-3.51,3.45,3.45,0,0,0-.26-1.29A4,4,0,1,1,272,241C272,241,272,240.9,272,240.84Z"/><path class="cls-1" d="M228,115a15.93,15.93,0,0,0-10.82,4.23c-1.59-.14-3.3-.23-5.18-.23h-1.53c11.14,3.27,22.65,14.07,27.34,24.62A16,16,0,0,0,228,115Z"/><path class="cls-1" d="M193.19,178.78a54.83,54.83,0,0,0,.32-16.95c4.14-5.15,6.83-15,2.49-19.32-4.69-4.68-15.8-4.68-20.49,0-2.8,2.81-3.74,7.92-3,12.57,2.45-4.79,6.1-8.63,11.46-8.08a4.31,4.31,0,0,1,1.9.75,5.79,5.79,0,0,0-1.82-.3c-9.3,0-13.88,18.8-15.4,27.72a13.37,13.37,0,0,1-.6-3.72,48.86,48.86,0,0,1,1.9-9.77,21.6,21.6,0,0,1-1.61-5.39c-9.09,9-3,37,11.71,38.63a8.19,8.19,0,0,0,1.21.07h.16a6,6,0,0,0,1.9-.33,10.41,10.41,0,0,0,4.73-3.22,17.78,17.78,0,0,0,3-4.92c.55-1,1.07-2.07,1.56-3.19a60.29,60.29,0,0,0,6.08.5A11.11,11.11,0,0,1,193.19,178.78Z"/><path class="cls-1" d="M170.19,143.62c4.69-10.55,16.2-21.35,27.34-24.62H196c-1.88,0-3.59.09-5.18.23a16,16,0,1,0-20.63,24.39Z"/><path class="cls-1" d="M204,163c-2.21,0-8-2.21-8,0s5.79,8,8,8,8-5.79,8-8S206.21,163,204,163Z"/><path class="cls-1" d="M204,175.08a2.94,2.94,0,0,0-1.64,1.64c0,.45,1.19,0,1.64,0s1.64.45,1.64,0A2.94,2.94,0,0,0,204,175.08Z"/><path class="cls-1" d="M192,233.48c0-.33,0-.66,0-1a16,16,0,0,0-13.08-14.72,29.08,29.08,0,0,0-2.79-2.27,15.92,15.92,0,0,1,11.89,5.4,16,16,0,0,0-26.74-11.22l-.6-.06c17,4.49,27.37,21.52,27.37,31.87,0,12.28-8.77,22.7-23.43,26.48a18.92,18.92,0,0,1-7,4.5c7.05-.23,14-2,19.31-5.78a18.17,18.17,0,0,1,2.66,8.92,30.54,30.54,0,0,1-1.46,8.9c8.88-4.3,19.11-14.66,21.9-23A35.54,35.54,0,0,0,191.39,238,16.19,16.19,0,0,0,192,233.48Z"/><path class="cls-1" d="M116,241.48c0-10.35,10.35-27.38,27.37-31.87l-.61.06a16,16,0,0,0-26.73,11.22,15.91,15.91,0,0,1,11.88-5.4,30.24,30.24,0,0,0-2.78,2.27,16,16,0,0,0-13.08,14.72c0,.34,0,.67,0,1a15.89,15.89,0,0,0,.65,4.5,35.61,35.61,0,0,0-8.65,23.5c2.79,8.37,13,18.74,21.9,23a30.7,30.7,0,0,1-1.47-8.92,18.14,18.14,0,0,1,2.68-8.94c5.34,3.82,12.24,5.57,19.29,5.8a18.88,18.88,0,0,1-7-4.5C124.81,264.18,116,253.76,116,241.48Z"/><path class="cls-1" d="M152,253.48c-2.21,0-8-2.21-8,0s5.79,8,8,8,8-5.79,8-8S154.25,253.48,152,253.48Z"/><path class="cls-1" d="M152,265.77c-.45,0-1.64-.46-1.64,0A2.92,2.92,0,0,0,152,267.4a2.92,2.92,0,0,0,1.64-1.63C153.68,265.31,152.49,265.77,152,265.77Z"/><path class="cls-1" d="M123.32,233c-4.69,4.68-4.2,15.8.49,20.48s11.79,1.18,16.48-3.51,8.2-15.8,3.52-20.49S128,228.31,123.32,233Zm10.53,14.84a1.16,1.16,0,1,1,1.16-1.16A1.15,1.15,0,0,1,133.85,247.84Zm-.81-6.36a3.81,3.81,0,0,0-1.27.23,1.17,1.17,0,0,1,.23.66,1.14,1.14,0,0,1-2.09.65,3.94,3.94,0,0,0-.87,2.46,4.07,4.07,0,0,0,.07.71,4,4,0,1,1,6.86-3.41A4,4,0,0,0,133,241.48Z"/><path class="cls-1" d="M179.81,253.48c4.68-4.68,5.17-15.8.48-20.48s-15.8-8.2-20.48-3.52-1.18,15.8,3.51,20.49S175.12,258.17,179.81,253.48Zm-9.23-5.64a1.16,1.16,0,1,1,1.16-1.16A1.15,1.15,0,0,1,170.58,247.84Zm1.46-8.36a4,4,0,0,1,2.38,7.2,3.57,3.57,0,0,0-3.38-4.8l-.29,0a1.12,1.12,0,0,1,.11.47,1.16,1.16,0,0,1-2.23.44,3.58,3.58,0,0,0-.59.69v0A4,4,0,0,1,172,239.48Z"/></svg>