<svg id="Layer_1" data-name="Layer 1" xmlns="http://www.w3.org/2000/svg" viewBox="0 0 400 400"><defs><style>.cls-1{fill:#494866;}</style></defs><title>panda</title><path class="cls-1" d="M129,182.48a44.26,44.26,0,0,1,2,9.51,13.26,13.26,0,0,1-.6,3.72C128.88,186.8,124.3,168,115,168a5.92,5.92,0,0,0-2.94.78c.47-1,2.44-1.7,3.39-1.7,5.42,0,8.49,4.46,11,9.22.89-4.82,0-10.29-3-13.23-4.69-4.69-15.8-4.69-20.49,0-4.34,4.33-1.65,14.16,2.49,19.32a54.76,54.76,0,0,0,.32,16.94,11,11,0,0,1-5,4.89,47.16,47.16,0,0,0,5.47-.84c.56,1.31,1.15,2.55,1.78,3.71a17.57,17.57,0,0,0,3,4.91,10.41,10.41,0,0,0,4.73,3.22,5.71,5.71,0,0,0,1.9.33h.16a7,7,0,0,0,1.21-.07c14.71-1.65,20.8-29.63,11.71-38.63A21.76,21.76,0,0,1,129,182.48Z"/><path class="cls-1" d="M337.61,179.75A26.74,26.74,0,0,1,327,193.05c-5.1-2.16-12.19-4.87-18.44-5.41,1.4-1.53,2.48-3.14,2.48-4.1,0-2.21-5.79,0-8,0s-8-2.21-8,0c0,.84.84,2.2,2,3.55-6.46,1-13.43,3.91-18,5.91a26.72,26.72,0,0,1-10.58-13.25c-3.58,2.36-5.39,6.79-5.39,11.79,0,11,6.08,21.93,13.78,23.74l.33.07.64.1.29,0c.32,0,.64,0,1,0h.09c.3,0,.62,0,.94,0h.2l.41-.06c11.13-1.51,29.14-18.3,28-25.35,2.25,2.82.45,7.83-3.53,12.67,1.16,1.25,2.43,2.48,3.78,3.67a54.73,54.73,0,0,0,4.66,3.66c4.46,3.2,9.38,5.47,13.44,5.47a7.38,7.38,0,0,0,.82,0,8,8,0,0,0,4.63-1.7C338.54,209.86,343,200,343,191.54,343,186.57,341.23,182.14,337.61,179.75Z"/><path class="cls-1" d="M337.43,163.66a16,16,0,1,0-21-24.08c-.46,0-.92,0-1.4,0h-3.84C324.56,142.87,333.9,154,337.43,163.66Z"/><path class="cls-1" d="M268.57,163.66c3.53-9.69,12.87-20.79,26.27-24.12H291c-.48,0-.94,0-1.4,0a16,16,0,1,0-21,24.08Z"/><path class="cls-1" d="M274.51,163.06c-4.68,4.68-4.2,15.8.49,20.48s11.8,1.18,16.49-3.51,8.2-15.8,3.51-20.49S279.2,158.37,274.51,163.06Zm9.71,4a1.16,1.16,0,1,1,0,2.31,1.16,1.16,0,0,1,0-2.31ZM283,175.54a4,4,0,0,1-4-4,3.93,3.93,0,0,1,1.37-3,3.52,3.52,0,0,0-.15,1,3,3,0,0,0,0,.31,1.14,1.14,0,1,1,.86,2.11,3.73,3.73,0,0,0,5.86-.1A4,4,0,0,1,283,175.54Z"/><path class="cls-1" d="M331,183.54c4.69-4.68,5.17-15.8.49-20.48s-15.8-8.2-20.49-3.52-1.17,15.8,3.51,20.49S326.31,188.23,331,183.54Zm-9.22-16.14a1.16,1.16,0,1,1-1.16,1.16A1.15,1.15,0,0,1,321.78,167.4Zm-2.76,4a3.4,3.4,0,0,0,.88,1,1.14,1.14,0,0,1,1.08-.81,1.16,1.16,0,0,1,1.16,1.16,1.28,1.28,0,0,1-.07.35,3.48,3.48,0,0,0,3.19-4.8,4,4,0,1,1-6.26,3.29A1,1,0,0,1,319,171.38Z"/><path class="cls-1" d="M119,135.54a15.94,15.94,0,0,0-10.82,4.24c-1.59-.15-3.3-.24-5.18-.24h-1.53c11.14,3.27,22.65,14.08,27.34,24.63A16,16,0,0,0,119,135.54Z"/><path class="cls-1" d="M84.19,199.32a54.76,54.76,0,0,0,.32-16.94c4.14-5.16,6.83-15,2.49-19.32-4.69-4.69-15.8-4.69-20.49,0-2.8,2.8-3.74,7.91-3.05,12.57,2.45-4.8,6.1-8.64,11.46-8.09a4.31,4.31,0,0,1,1.9.75A6.09,6.09,0,0,0,75,168c-9.3,0-13.88,18.81-15.4,27.72A13.26,13.26,0,0,1,59,192a48.82,48.82,0,0,1,1.9-9.76,21.67,21.67,0,0,1-1.61-5.4c-9.09,9-3,37,11.71,38.63a7,7,0,0,0,1.21.07h.16a5.71,5.71,0,0,0,1.9-.33A10.41,10.41,0,0,0,79,212a17.57,17.57,0,0,0,3-4.91c.55-1,1.07-2.08,1.56-3.19a60.3,60.3,0,0,0,6.08.49A11.11,11.11,0,0,1,84.19,199.32Z"/><path class="cls-1" d="M61.19,164.17c4.69-10.55,16.2-21.36,27.34-24.63H87c-1.88,0-3.59.09-5.18.24a16,16,0,1,0-20.63,24.39Z"/><path class="cls-1" d="M95,183.54c-2.21,0-8-2.21-8,0s5.79,8,8,8,8-5.79,8-8S97.21,183.54,95,183.54Z"/><path class="cls-1" d="M95,195.62a2.94,2.94,0,0,0-1.64,1.64c0,.45,1.19,0,1.64,0s1.64.45,1.64,0A2.94,2.94,0,0,0,95,195.62Z"/><path class="cls-1" d="M239,163.54c0-.33,0-.66-.05-1a16,16,0,0,0-13.08-14.72,30.24,30.24,0,0,0-2.78-2.27A15.91,15.91,0,0,1,235,151a16,16,0,0,0-26.74-11.22l-.6-.06c17,4.49,27.37,21.52,27.37,31.87,0,12.28-8.77,22.7-23.43,26.48a18.92,18.92,0,0,1-7,4.5c7-.23,14-2,19.31-5.78a18.08,18.08,0,0,1,2.67,8.92,30.57,30.57,0,0,1-1.47,8.9c8.88-4.3,19.11-14.66,21.9-23A35.54,35.54,0,0,0,238.35,168,15.82,15.82,0,0,0,239,163.54Z"/><path class="cls-1" d="M163,171.54c0-10.35,10.35-27.38,27.37-31.87l-.6.06A16,16,0,0,0,163,151a15.91,15.91,0,0,1,11.88-5.4,30.24,30.24,0,0,0-2.78,2.27,16,16,0,0,0-13.08,14.72c0,.34-.05.67-.05,1a15.89,15.89,0,0,0,.65,4.5,35.61,35.61,0,0,0-8.65,23.5c2.79,8.37,13,18.74,21.9,23a30.7,30.7,0,0,1-1.47-8.92,18.14,18.14,0,0,1,2.68-8.94c5.34,3.82,12.24,5.57,19.3,5.8a18.92,18.92,0,0,1-7-4.5C171.77,194.24,163,183.82,163,171.54Z"/><path class="cls-1" d="M199,183.54c-2.21,0-8-2.21-8,0s5.79,8,8,8,8-5.79,8-8S201.21,183.54,199,183.54Z"/><path class="cls-1" d="M199,195.83c-.45,0-1.64-.46-1.64,0a2.92,2.92,0,0,0,1.64,1.63,2.92,2.92,0,0,0,1.64-1.63C200.64,195.37,199.45,195.83,199,195.83Z"/><path class="cls-1" d="M170.28,163.06c-4.68,4.68-4.2,15.8.49,20.48s11.8,1.18,16.48-3.51,8.2-15.8,3.52-20.49S175,158.37,170.28,163.06Zm10.53,14.84a1.16,1.16,0,1,1,1.16-1.16A1.15,1.15,0,0,1,180.81,177.9Zm-.81-6.36a3.81,3.81,0,0,0-1.27.23,1.1,1.1,0,0,1,.23.66,1.14,1.14,0,0,1-2.09.65,3.94,3.94,0,0,0-.87,2.46,4.07,4.07,0,0,0,.07.71,4,4,0,1,1,6.86-3.41A4,4,0,0,0,180,171.54Z"/><path class="cls-1" d="M226.77,183.54c4.68-4.68,5.17-15.8.48-20.48s-15.8-8.2-20.48-3.52-1.17,15.8,3.51,20.49S222.08,188.23,226.77,183.54Zm-9.23-5.64a1.16,1.16,0,1,1,1.16-1.16A1.16,1.16,0,0,1,217.54,177.9Zm1.46-8.36a4,4,0,0,1,2.38,7.2,3.57,3.57,0,0,0-3.38-4.8l-.29,0a1.12,1.12,0,0,1,.11.47,1.16,1.16,0,0,1-2.23.44,3.58,3.58,0,0,0-.59.69v0A4,4,0,0,1,219,169.54Z"/><path class="cls-1" d="M171.32,232.46v32h132v-32Zm27.33,24h-3.84L188,247.74v8.72h-4.35V240.57h4.1l6.54,8.4v-8.4h4.36Zm45.73-8a8.17,8.17,0,0,1-.61,3.19,7.24,7.24,0,0,1-1.77,2.53,8.29,8.29,0,0,1-2.84,1.66,11,11,0,0,1-3.81.61h-6.06V240.57h6.15a11.41,11.41,0,0,1,3.78.58,8,8,0,0,1,2.81,1.62,7,7,0,0,1,1.75,2.49,8.12,8.12,0,0,1,.6,3.16Zm41.89,8-1.13-2.86H279l-1.14,2.86h-4.6l6.74-16h4.24l6.76,16Z"/><polygon class="cls-1" points="280.28 250.17 283.85 250.17 282.08 245.68 280.28 250.17"/><path class="cls-1" d="M235.48,244.45h-1.79v8.1h1.79a4.74,4.74,0,0,0,3.2-1,3.75,3.75,0,0,0,1.21-3v0a3.75,3.75,0,0,0-1.21-3A4.65,4.65,0,0,0,235.48,244.45Z"/><path class="cls-1" d="M106.3,242a6.14,6.14,0,0,0-2.08-1.09,9.16,9.16,0,0,0-2.71-.37H94.68v15.89h4.4v-4.54h2.2a9.44,9.44,0,0,0,2.73-.37,6,6,0,0,0,2.15-1.09,4.93,4.93,0,0,0,1.42-1.8,5.75,5.75,0,0,0,.51-2.48v-.05a5.66,5.66,0,0,0-.46-2.35A4.88,4.88,0,0,0,106.3,242Zm-2.59,4.35a1.87,1.87,0,0,1-.68,1.52,2.77,2.77,0,0,1-1.84.57H99.08v-4.2h2.09a3,3,0,0,1,1.86.52,1.81,1.81,0,0,1,.68,1.55Z"/><path class="cls-1" d="M143.27,240.46l-6.74,16h4.61l1.13-2.86h6.15l1.14,2.86h4.72l-6.77-16Zm.3,9.71,1.79-4.49,1.77,4.49Z"/></svg>